<svg width="50" height="66" viewBox="0 0 50 66" fill="none" xmlns="http://www.w3.org/2000/svg">
<path d="M50 25C50 31.6304 47.3661 37.9893 42.6777 42.6777C37.9893 47.3661 31.6304 50 25 50C18.3696 50 12.0107 47.3661 7.32233 42.6777C2.63392 37.9893 1.00116e-06 31.6304 0 25H0.4949C0.494901 31.4992 3.07668 37.7321 7.67228 42.3277C12.2679 46.9233 18.5008 49.5051 25 49.5051C31.4992 49.5051 37.7321 46.9233 42.3277 42.3277C46.9233 37.7321 49.5051 31.4992 49.5051 25H50Z" fill="white"/>
<line x1="25.5" y1="16" x2="25.5" y2="66" stroke="white"/>
<line x1="25.8563" y1="54.6271" x2="32.0367" y2="64.9131" stroke="white"/>
<line x1="24.2867" y1="26.5904" x2="44.2867" y2="40.5904" stroke="white"/>
<path d="M4 37.3896L26.8205 27.3575L7.5 43.4517" stroke="white"/>
</svg>
