<svg width="44" height="44" viewBox="0 0 44 44" fill="none" xmlns="http://www.w3.org/2000/svg">
<rect x="22.5" y="21.5" width="21" height="21" stroke="white"/>
<rect x="0.5" y="0.5" width="21" height="21" stroke="white"/>
<path d="M34.4944 4.9251C34.453 4.65207 34.1981 4.46427 33.9251 4.50564L29.4759 5.17977C29.2029 5.22113 29.0151 5.476 29.0564 5.74903C29.0978 6.02205 29.3527 6.20985 29.6257 6.16848L33.5805 5.56926L34.1798 9.52412C34.2211 9.79715 34.476 9.98495 34.749 9.94358C35.0221 9.90221 35.2099 9.64734 35.1685 9.37432L34.4944 4.9251ZM6.40253 43.2966L34.4025 5.2966L33.5975 4.7034L5.59747 42.7034L6.40253 43.2966Z" fill="white"/>
<circle cx="11" cy="11" r="6" fill="white"/>
<circle cx="33" cy="32" r="5.5" stroke="white"/>
</svg>
