<svg width="51" height="44" viewBox="0 0 51 44" fill="none" xmlns="http://www.w3.org/2000/svg">
<path d="M7.36841 43.3947C16.7187 40.3416 20.1053 36.8417 20.1053 26.943C20.1053 22.8518 21.9078 22.1667 25.4123 22.1667C33.1314 22.1667 40.178 14.9248 43.4561 8.36842" stroke="white" stroke-linecap="round"/>
<path d="M21.1667 23.2895C14.9851 20.6623 6.30701 14.7144 6.30701 7.36842" stroke="white" stroke-linecap="round"/>
<path d="M28.5965 21.1667C27.7743 16.953 27.5246 15.1981 29.422 11.614C30.285 9.98407 31.0381 9.39993 29.422 7.60429C27.8644 5.87358 25.1016 1.90606 23.2895 1" stroke="white" stroke-linecap="round"/>
<path d="M20.1053 24.3509C13.2296 29.3513 8.80409 29.3143 1 25.4123" stroke="white" stroke-linecap="round"/>
<path d="M21.1052 23.3509C29.4814 34.0724 32.8667 23.3509 42.3333 23.3509" stroke="white" stroke-linecap="round"/>
<path d="M29.3684 21.4527C33.3785 21.4527 37.2287 21.6613 41.1323 20.3532C42.9687 19.7379 44.0683 18.2965 45.9934 18.1542C48.2005 17.9911 48.889 14.4362 50.3684 18.1542" stroke="white" stroke-linecap="round"/>
<path d="M21.1666 24.3509C20.7749 22.3434 20.8874 11.4744 19.0438 10.5526" stroke="white" stroke-linecap="round"/>
</svg>
