<svg width="50" height="44" viewBox="0 0 50 44" fill="none" xmlns="http://www.w3.org/2000/svg">
<path d="M36.8492 6.15076C39.4936 8.79509 41.3838 12.0976 42.3246 15.717C43.2654 19.3363 43.2226 23.1413 42.2007 26.7386C41.1788 30.3359 39.2148 33.5951 36.5117 36.1793C33.8086 38.7635 30.4644 40.579 26.8248 41.4382C23.1852 42.2974 19.3822 42.1691 15.8087 41.0666C12.2353 39.9641 9.02112 37.9273 6.49832 35.1668C3.97552 32.4063 2.23564 29.0221 1.45847 25.3641C0.681315 21.7061 0.89507 17.907 2.07765 14.3592L2.55473 14.5182C1.40046 17.981 1.19183 21.6892 1.95038 25.2596C2.70893 28.83 4.40714 32.1331 6.86953 34.8275C9.33192 37.5219 12.4691 39.5099 15.957 40.5861C19.4449 41.6622 23.1568 41.7874 26.7093 40.9488C30.2617 40.1102 33.5258 38.3381 36.1642 35.8158C38.8026 33.2935 40.7195 30.1123 41.717 26.6012C42.7144 23.09 42.7562 19.3762 41.8379 15.8435C40.9196 12.3108 39.0747 9.08735 36.4936 6.50635L36.8492 6.15076Z" fill="white"/>
<path d="M29.5217 13.2226C29.2731 13.3429 29.1692 13.642 29.2895 13.8905L31.2501 17.9409C31.3704 18.1895 31.6695 18.2934 31.918 18.1731C32.1666 18.0528 32.2705 17.7538 32.1502 17.5052L30.4074 13.9049L34.0078 12.162C34.2563 12.0417 34.3603 11.7427 34.24 11.4942C34.1197 11.2456 33.8206 11.1416 33.5721 11.262L29.5217 13.2226ZM49.444 19.9936L29.9037 13.2004L29.5753 14.1449L49.1156 20.9381L49.444 19.9936Z" fill="white"/>
<circle cx="5" cy="33" r="4.5" stroke="white"/>
<circle cx="38.5" cy="32.5" r="7" stroke="white"/>
<circle cx="14.5" cy="31.5" r="2" stroke="white"/>
<circle cx="14" cy="40" r="3.5" stroke="white"/>
</svg>
