<svg width="608" height="608" viewBox="0 0 608 608" fill="none" xmlns="http://www.w3.org/2000/svg">
<g clip-path="url(#clip0_10_2)">
<path d="M283.2 276.05L290.551 471.51C290.551 471.51 290.551 475.186 293.001 475.186C295.451 475.186 295.451 471.51 295.451 471.51L302.802 276.05" fill="black"/>
<path d="M283.2 276.05L290.551 471.51C290.551 471.51 290.551 475.186 293.001 475.186C295.451 475.186 295.451 471.51 295.451 471.51L302.802 276.05" stroke="black" stroke-width="1.8379"/>
<path d="M274.53 339.2C263.276 363.797 272.94 383.897 261.697 405.369C250.453 426.841 257.483 444.529 256.729 454.38C255.976 464.231 247.918 466.968 249.952 469.258C251.987 471.548 260.411 467.009 263.698 453.922C266.985 440.835 259.142 433.298 272.624 406.967C286.106 380.635 275.393 368.763 288.926 345.256" fill="black"/>
<path d="M274.53 339.2C263.276 363.797 272.94 383.897 261.697 405.369C250.453 426.841 257.483 444.529 256.729 454.38C255.976 464.231 247.918 466.968 249.952 469.258C251.987 471.548 260.411 467.009 263.698 453.922C266.985 440.835 259.142 433.298 272.624 406.967C286.106 380.635 275.393 368.763 288.926 345.256" stroke="black" stroke-width="1.8379"/>
<path d="M302.8 276.05L295.449 80.59C295.449 80.59 295.449 76.9136 292.999 76.9136C290.549 76.9136 290.549 80.59 290.549 80.59L283.198 276.05" fill="black"/>
<path d="M302.8 276.05L295.449 80.59C295.449 80.59 295.449 76.9136 292.999 76.9136C290.549 76.9136 290.549 80.59 290.549 80.59L283.198 276.05" stroke="black" stroke-width="1.8379"/>
<path d="M311.47 212.9C322.724 188.303 313.06 168.203 324.303 146.731C335.547 125.259 328.517 107.571 329.271 97.72C330.024 87.8689 338.082 85.132 336.048 82.842C334.013 80.5521 325.589 85.0904 322.302 98.178C319.015 111.265 326.858 118.802 313.376 145.133C299.894 171.465 310.607 183.337 297.074 206.844" fill="black"/>
<path d="M311.47 212.9C322.724 188.303 313.06 168.203 324.303 146.731C335.547 125.259 328.517 107.571 329.271 97.72C330.024 87.8689 338.082 85.132 336.048 82.842C334.013 80.5521 325.589 85.0904 322.302 98.178C319.015 111.265 326.858 118.802 313.376 145.133C299.894 171.465 310.607 183.337 297.074 206.844" stroke="black" stroke-width="1.8379"/>
<path d="M293 266.25L97.59 273.603C97.59 273.603 93.9147 273.603 93.9147 276.054C93.9147 278.504 97.59 278.504 97.59 278.504L293 285.857" fill="black"/>
<path d="M293 266.25L97.59 273.603C97.59 273.603 93.9147 273.603 93.9147 276.054C93.9147 278.504 97.59 278.504 97.59 278.504L293 285.857" stroke="black" stroke-width="1.8379"/>
<path d="M229.871 257.58C205.281 246.323 185.187 255.99 163.72 244.743C142.253 233.496 124.571 240.527 114.722 239.774C104.874 239.02 102.137 230.96 99.848 232.995C97.5587 235.03 102.096 243.457 115.179 246.745C128.262 250.033 135.797 242.187 162.121 255.673C188.445 269.159 200.314 258.443 223.815 271.98" fill="black"/>
<path d="M229.871 257.58C205.281 246.323 185.187 255.99 163.72 244.743C142.253 233.496 124.571 240.527 114.722 239.774C104.874 239.02 102.137 230.96 99.848 232.995C97.5587 235.03 102.096 243.457 115.179 246.745C128.262 250.033 135.797 242.187 162.121 255.673C188.445 269.159 200.314 258.443 223.815 271.98" stroke="black" stroke-width="1.8379"/>
<path d="M293 285.85L488.41 278.497C488.41 278.497 492.085 278.497 492.085 276.046C492.085 273.595 488.41 273.595 488.41 273.595L293 266.243" fill="black"/>
<path d="M293 285.85L488.41 278.497C488.41 278.497 492.085 278.497 492.085 276.046C492.085 273.595 488.41 273.595 488.41 273.595L293 266.243" stroke="black" stroke-width="1.8379"/>
<path d="M356.13 294.52C380.72 305.777 400.814 296.11 422.281 307.357C443.747 318.604 461.43 311.573 471.279 312.326C481.127 313.08 483.864 321.14 486.153 319.105C488.442 317.07 483.905 308.643 470.822 305.355C457.738 302.067 450.204 309.913 423.88 296.427C397.556 282.941 385.687 293.657 362.186 280.12" fill="black"/>
<path d="M356.13 294.52C380.72 305.777 400.814 296.11 422.281 307.357C443.747 318.604 461.43 311.573 471.279 312.326C481.127 313.08 483.864 321.14 486.153 319.105C488.442 317.07 483.905 308.643 470.822 305.355C457.738 302.067 450.204 309.913 423.88 296.427C397.556 282.941 385.687 293.657 362.186 280.12" stroke="black" stroke-width="1.8379"/>
<path d="M286.07 269.12L153.1 412.53C153.1 412.53 150.501 415.13 152.234 416.863C153.966 418.596 156.565 415.996 156.565 415.996L299.935 282.986" fill="black"/>
<path d="M286.07 269.12L153.1 412.53C153.1 412.53 150.501 415.13 152.234 416.863C153.966 418.596 156.565 415.996 156.565 415.996L299.935 282.986" stroke="black" stroke-width="1.8379"/>
<path d="M235.301 307.64C209.956 317.073 202.58 338.121 179.451 345.351C156.321 352.582 148.788 370.061 141.292 376.493C133.796 382.925 126.163 379.162 125.983 382.22C125.803 385.278 134.968 388.028 146.544 381.099C158.12 374.17 157.901 363.293 186.048 354.21C214.196 345.126 215.013 329.155 241.2 322.104" fill="black"/>
<path d="M235.301 307.64C209.956 317.073 202.58 338.121 179.451 345.351C156.321 352.582 148.788 370.061 141.292 376.493C133.796 382.925 126.163 379.162 125.983 382.22C125.803 385.278 134.968 388.028 146.544 381.099C158.12 374.17 157.901 363.293 186.048 354.21C214.196 345.126 215.013 329.155 241.2 322.104" stroke="black" stroke-width="1.8379"/>
<path d="M299.93 282.98L432.9 139.57C432.9 139.57 435.499 136.97 433.766 135.237C432.034 133.504 429.435 136.104 429.435 136.104L286.065 269.114" fill="black"/>
<path d="M299.93 282.98L432.9 139.57C432.9 139.57 435.499 136.97 433.766 135.237C432.034 133.504 429.435 136.104 429.435 136.104L286.065 269.114" stroke="black" stroke-width="1.8379"/>
<path d="M350.7 244.46C376.045 235.027 383.421 213.979 406.55 206.749C429.679 199.519 437.213 182.039 444.709 175.607C452.205 169.175 459.838 172.938 460.018 169.88C460.198 166.821 451.033 164.072 439.457 171.001C427.881 177.93 428.1 188.807 399.953 197.89C371.805 206.974 370.988 222.945 344.801 229.996" fill="black"/>
<path d="M350.7 244.46C376.045 235.027 383.421 213.979 406.55 206.749C429.679 199.519 437.213 182.039 444.709 175.607C452.205 169.175 459.838 172.938 460.018 169.88C460.198 166.821 451.033 164.072 439.457 171.001C427.881 177.93 428.1 188.807 399.953 197.89C371.805 206.974 370.988 222.945 344.801 229.996" stroke="black" stroke-width="1.8379"/>
<path d="M299.93 269.12L156.56 136.11C156.56 136.11 153.961 133.51 152.229 135.243C150.496 136.977 153.095 139.576 153.095 139.576L286.065 282.986" fill="black"/>
<path d="M299.93 269.12L156.56 136.11C156.56 136.11 153.961 133.51 152.229 135.243C150.496 136.977 153.095 139.576 153.095 139.576L286.065 282.986" stroke="black" stroke-width="1.8379"/>
<path d="M261.421 218.34C251.991 192.988 230.949 185.61 223.72 162.474C216.491 139.338 199.017 131.803 192.586 124.304C186.155 116.805 189.918 109.17 186.86 108.99C183.803 108.81 181.054 117.978 187.981 129.557C194.909 141.136 205.782 140.917 214.863 169.072C223.944 197.227 239.911 198.045 246.96 224.239" fill="black"/>
<path d="M261.421 218.34C251.991 192.988 230.949 185.61 223.72 162.474C216.491 139.338 199.017 131.803 192.586 124.304C186.155 116.805 189.918 109.17 186.86 108.99C183.803 108.81 181.054 117.978 187.981 129.557C194.909 141.136 205.782 140.917 214.863 169.072C223.944 197.227 239.911 198.045 246.96 224.239" stroke="black" stroke-width="1.8379"/>
<path d="M286.07 282.98L429.44 415.99C429.44 415.99 432.039 418.59 433.771 416.856C435.504 415.123 432.905 412.524 432.905 412.524L299.935 269.114" fill="black"/>
<path d="M286.07 282.98L429.44 415.99C429.44 415.99 432.039 418.59 433.771 416.856C435.504 415.123 432.905 412.524 432.905 412.524L299.935 269.114" stroke="black" stroke-width="1.8379"/>
<path d="M324.58 333.76C334.01 359.112 355.052 366.49 362.281 389.626C369.51 412.762 386.984 420.297 393.415 427.796C399.846 435.295 396.083 442.93 399.141 443.11C402.198 443.29 404.947 434.122 398.02 422.543C391.092 410.964 380.219 411.183 371.138 383.028C362.057 354.873 346.09 354.055 339.041 327.861" fill="black"/>
<path d="M324.58 333.76C334.01 359.112 355.052 366.49 362.281 389.626C369.51 412.762 386.984 420.297 393.415 427.796C399.846 435.295 396.083 442.93 399.141 443.11C402.198 443.29 404.947 434.122 398.02 422.543C391.092 410.964 380.219 411.183 371.138 383.028C362.057 354.873 346.09 354.055 339.041 327.861" stroke="black" stroke-width="1.8379"/>
<path d="M283.95 272.3L215.963 455.69C215.963 455.69 214.556 459.087 216.82 460.024C219.084 460.962 220.49 457.566 220.49 457.566L302.06 279.796" fill="black"/>
<path d="M283.95 272.3L215.963 455.69C215.963 455.69 214.556 459.086 216.82 460.024C219.084 460.962 220.49 457.566 220.49 457.566L302.06 279.796" stroke="black" stroke-width="1.8379"/>
<path d="M251.778 327.32C231.971 345.737 233.209 368.006 214.607 383.54C196.004 399.074 195.732 418.106 191.267 426.919C186.802 435.732 178.31 435.176 179.314 438.071C180.318 440.965 189.837 439.997 197.881 429.164C205.925 418.331 201.561 408.366 224.091 389.199C246.621 370.032 241.266 354.964 262.762 338.426" fill="black"/>
<path d="M251.778 327.32C231.971 345.737 233.209 368.006 214.607 383.54C196.004 399.074 195.732 418.106 191.267 426.919C186.802 435.732 178.31 435.176 179.314 438.071C180.318 440.965 189.837 439.997 197.881 429.164C205.925 418.331 201.561 408.366 224.091 389.199C246.621 370.032 241.266 354.964 262.762 338.426" stroke="black" stroke-width="1.8379"/>
<path d="M302.05 279.8L370.037 96.41C370.037 96.41 371.443 93.0135 369.18 92.0756C366.916 91.1377 365.51 94.5342 365.51 94.5342L283.94 272.304" fill="black"/>
<path d="M302.05 279.8L370.037 96.41C370.037 96.41 371.443 93.0135 369.18 92.0756C366.916 91.1377 365.51 94.5342 365.51 94.5342L283.94 272.304" stroke="black" stroke-width="1.8379"/>
<path d="M334.22 224.78C354.027 206.363 352.789 184.094 371.391 168.56C389.994 153.026 390.266 133.994 394.731 125.181C399.196 116.368 407.688 116.924 406.684 114.029C405.68 111.134 396.161 112.103 388.117 122.935C380.073 133.768 384.437 143.733 361.907 162.9C339.377 182.067 344.732 197.135 323.236 213.673" fill="black"/>
<path d="M334.22 224.78C354.027 206.363 352.789 184.094 371.391 168.56C389.994 153.026 390.266 133.994 394.731 125.181C399.196 116.368 407.688 116.924 406.684 114.029C405.68 111.134 396.161 112.103 388.117 122.935C380.073 133.768 384.437 143.733 361.907 162.9C339.377 182.067 344.732 197.135 323.236 213.673" stroke="black" stroke-width="1.8379"/>
<path d="M296.75 266.99L113.41 198.984C113.41 198.984 110.014 197.577 109.077 199.841C108.139 202.106 111.535 203.513 111.535 203.513L289.255 285.105" fill="black"/>
<path d="M296.75 266.99L113.41 198.984C113.41 198.984 110.014 197.577 109.077 199.841C108.139 202.106 111.535 203.513 111.535 203.513L289.255 285.105" stroke="black" stroke-width="1.8379"/>
<path d="M241.745 234.82C223.334 215.007 201.071 216.246 185.541 197.638C170.011 179.03 150.984 178.757 142.174 174.291C133.364 169.825 133.919 161.331 131.026 162.335C128.132 163.339 129.1 172.861 139.93 180.907C150.76 188.953 160.722 184.588 179.883 207.124C199.044 229.66 214.109 224.303 230.642 245.806" fill="black"/>
<path d="M241.745 234.82C223.334 215.007 201.071 216.246 185.541 197.638C170.011 179.03 150.984 178.757 142.174 174.291C133.364 169.825 133.919 161.331 131.026 162.335C128.132 163.339 129.1 172.861 139.93 180.907C150.76 188.953 160.722 184.588 179.883 207.124C199.044 229.66 214.109 224.303 230.642 245.806" stroke="black" stroke-width="1.8379"/>
<path d="M289.25 285.11L472.59 353.116C472.59 353.116 475.986 354.523 476.923 352.258C477.861 349.994 474.465 348.587 474.465 348.587L296.745 266.995" fill="black"/>
<path d="M289.25 285.11L472.59 353.116C472.59 353.116 475.986 354.523 476.923 352.258C477.861 349.994 474.465 348.587 474.465 348.587L296.745 266.995" stroke="black" stroke-width="1.8379"/>
<path d="M344.26 317.28C362.671 337.093 384.934 335.854 400.464 354.462C415.994 373.07 435.021 373.343 443.831 377.809C452.641 382.275 452.086 390.769 454.979 389.765C457.873 388.761 456.905 379.239 446.075 371.193C435.245 363.147 425.283 367.512 406.122 344.976C386.961 322.44 371.896 327.797 355.363 306.294" fill="black"/>
<path d="M344.26 317.28C362.671 337.093 384.934 335.854 400.464 354.462C415.994 373.07 435.021 373.343 443.831 377.809C452.641 382.275 452.086 390.769 454.979 389.765C457.873 388.761 456.905 379.239 446.075 371.193C435.245 363.147 425.283 367.512 406.122 344.976C386.961 322.44 371.896 327.797 355.363 306.294" stroke="black" stroke-width="1.8379"/>
<path d="M289.25 266.99L111.53 348.582C111.53 348.582 108.134 349.989 109.072 352.253C110.01 354.517 113.405 353.111 113.405 353.111L296.745 285.105" fill="black"/>
<path d="M289.25 266.99L111.53 348.582C111.53 348.582 108.134 349.989 109.072 352.253C110.01 354.517 113.405 353.111 113.405 353.111L296.745 285.105" stroke="black" stroke-width="1.8379"/>
<path d="M227.609 283.15C200.584 282.163 185.718 298.785 161.583 296.612C137.448 294.439 123.801 307.703 114.414 310.777C105.027 313.851 99.4149 307.451 98.0789 310.208C96.7425 312.965 104.158 319.013 117.504 317.042C130.85 315.072 134.809 304.939 164.289 307.322C193.769 309.704 200.635 295.262 227.526 298.772" fill="black"/>
<path d="M227.609 283.15C200.584 282.163 185.718 298.785 161.583 296.612C137.448 294.439 123.801 307.703 114.414 310.777C105.027 313.851 99.4149 307.451 98.0789 310.208C96.7425 312.965 104.158 319.013 117.504 317.042C130.85 315.072 134.809 304.939 164.289 307.322C193.769 309.704 200.635 295.262 227.526 298.772" stroke="black" stroke-width="1.8379"/>
<path d="M296.75 285.11L474.47 203.518C474.47 203.518 477.866 202.111 476.928 199.847C475.99 197.582 472.595 198.989 472.595 198.989L289.255 266.995" fill="black"/>
<path d="M296.75 285.11L474.47 203.518C474.47 203.518 477.866 202.111 476.928 199.847C475.99 197.582 472.595 198.989 472.595 198.989L289.255 266.995" stroke="black" stroke-width="1.8379"/>
<path d="M358.39 268.95C385.415 269.937 400.281 253.315 424.416 255.488C448.551 257.661 462.198 244.397 471.585 241.323C480.972 238.249 486.584 244.649 487.92 241.892C489.256 239.135 481.841 233.087 468.495 235.058C455.149 237.028 451.19 247.161 421.71 244.778C392.23 242.396 385.364 256.838 358.473 253.328" fill="black"/>
<path d="M358.39 268.95C385.415 269.937 400.281 253.315 424.416 255.488C448.551 257.661 462.198 244.397 471.585 241.323C480.972 238.249 486.584 244.649 487.92 241.892C489.256 239.135 481.841 233.087 468.495 235.058C455.149 237.028 451.19 247.161 421.71 244.778C392.23 242.396 385.364 256.838 358.473 253.328" stroke="black" stroke-width="1.8379"/>
<path d="M302.05 272.3L220.48 94.53C220.48 94.53 219.073 91.1335 216.81 92.0714C214.546 93.0093 215.953 96.4058 215.953 96.4058L283.94 279.796" fill="black"/>
<path d="M302.05 272.3L220.48 94.53C220.48 94.53 219.073 91.1335 216.81 92.0714C214.546 93.0093 215.953 96.4058 215.953 96.4058L283.94 279.796" stroke="black" stroke-width="1.8379"/>
<path d="M285.91 210.64C286.897 183.608 270.279 168.737 272.452 144.595C274.625 120.453 261.364 106.802 258.291 97.413C255.218 88.0233 261.616 82.41 258.86 81.073C256.104 79.7362 250.057 87.1539 252.027 100.503C253.997 113.852 264.127 117.812 261.745 147.301C259.363 176.789 273.802 183.657 270.293 210.555" fill="black"/>
<path d="M285.91 210.64C286.897 183.608 270.279 168.737 272.452 144.595C274.625 120.453 261.364 106.802 258.291 97.413C255.218 88.0233 261.616 82.41 258.86 81.073C256.104 79.7362 250.057 87.1539 252.027 100.503C253.997 113.852 264.127 117.812 261.745 147.301C259.363 176.789 273.802 183.657 270.293 210.555" stroke="black" stroke-width="1.8379"/>
<path d="M283.95 279.8L365.52 457.57C365.52 457.57 366.926 460.966 369.19 460.029C371.454 459.091 370.047 455.694 370.047 455.694L302.06 272.304" fill="black"/>
<path d="M283.95 279.8L365.52 457.57C365.52 457.57 366.926 460.966 369.19 460.029C371.454 459.091 370.047 455.694 370.047 455.694L302.06 272.304" stroke="black" stroke-width="1.8379"/>
<path d="M300.09 341.46C299.103 368.492 315.721 383.363 313.548 407.505C311.375 431.647 324.636 445.298 327.709 454.687C330.782 464.077 324.384 469.69 327.14 471.027C329.896 472.364 335.943 464.946 333.973 451.597C332.003 438.248 321.873 434.288 324.255 404.799C326.637 375.311 312.198 368.443 315.707 341.545" fill="black"/>
<path d="M300.09 341.46C299.103 368.492 315.721 383.363 313.548 407.505C311.375 431.647 324.636 445.298 327.709 454.687C330.782 464.077 324.384 469.69 327.14 471.027C329.896 472.364 335.943 464.946 333.973 451.597C332.003 438.248 321.873 434.288 324.255 404.799C326.637 375.311 312.198 368.443 315.707 341.545" stroke="black" stroke-width="1.8379"/>
<path d="M288.1 276.05L293 410.24L297.901 276.05" fill="white"/>
<path d="M277.63 345.45C268.899 369.935 278.096 386.188 266.374 406.938C279.398 392.081 270.812 372.826 282.188 347.628" fill="white"/>
<path d="M289.53 272.58L198.137 370.931L296.46 279.513" fill="white"/>
<path d="M288.47 274.17L241.66 400.02L297.524 277.92" fill="white"/>
<path d="M252.25 334.29C234.816 353.569 237.095 372.105 218.327 386.789C236.043 378.048 235.478 356.972 255.628 338.047" fill="white"/>
<path d="M297.9 276.05L293 141.86L288.099 276.05" fill="white"/>
<path d="M308.37 206.64C317.101 182.155 307.904 165.902 319.626 145.152C306.602 160.009 315.188 179.264 303.812 204.462" fill="white"/>
<path d="M293 271.15L158.85 276.052L293 280.954" fill="white"/>
<path d="M223.614 260.68C199.136 251.947 182.887 261.146 162.143 249.421C176.996 262.448 196.246 253.86 221.436 265.239" fill="white"/>
<path d="M233.071 314.26C209.589 325.398 204.602 343.395 181.645 349.777C201.357 348.483 208.898 328.795 234.754 319.024" fill="white"/>
<path d="M296.47 272.58L198.147 181.162L289.54 279.513" fill="white"/>
<path d="M254.803 216.1C243.668 192.611 225.676 187.623 219.296 164.66C220.59 184.377 240.272 191.92 250.04 217.784" fill="white"/>
<path d="M297.53 277.93L344.34 152.08L288.476 274.18" fill="white"/>
<path d="M294.88 271.52L169.07 224.698L291.13 280.578" fill="white"/>
<path d="M234.776 235.29C215.502 217.852 196.971 220.131 182.292 201.357C191.031 219.078 212.101 218.513 231.02 238.668" fill="white"/>
<path d="M291.12 271.52L169.06 327.4L294.87 280.578" fill="white"/>
<path d="M223.015 288.41C197.059 289.712 185.567 304.43 161.916 301.538C180.623 307.888 195.121 292.585 222.748 293.455" fill="white"/>
<path d="M297.53 274.17L241.666 152.07L288.476 277.92" fill="white"/>
<path d="M280.64 206.05C279.339 180.087 264.624 168.591 267.515 144.934C261.167 163.646 276.466 178.149 275.595 205.782" fill="white"/>
<path d="M293 280.95L427.15 276.048L293 271.146" fill="white"/>
<path d="M362.39 291.42C386.868 300.153 403.117 290.954 423.861 302.679C409.008 289.652 389.758 298.24 364.568 286.861" fill="white"/>
<path d="M296.47 279.52L387.863 181.169L289.54 272.587" fill="white"/>
<path d="M352.93 237.84C376.412 226.702 381.399 208.705 404.356 202.323C384.644 203.617 377.103 223.305 351.247 233.076" fill="white"/>
<path d="M289.53 279.52L387.853 370.938L296.46 272.587" fill="white"/>
<path d="M331.2 336C342.335 359.489 360.327 364.477 366.707 387.44C365.413 367.723 345.731 360.18 335.963 334.316" fill="white"/>
<path d="M333.75 217.81C351.184 198.531 348.905 179.995 367.673 165.311C349.957 174.052 350.522 195.128 330.372 214.053" fill="white"/>
<path d="M291.12 280.58L416.93 327.402L294.87 271.522" fill="white"/>
<path d="M351.22 316.81C370.494 334.248 389.025 331.969 403.704 350.743C394.965 333.022 373.895 333.587 354.976 313.432" fill="white"/>
<path d="M294.88 280.58L416.94 224.7L291.13 271.522" fill="white"/>
<path d="M362.98 263.69C388.936 262.388 400.428 247.67 424.079 250.562C405.372 244.212 390.874 259.515 363.247 258.645" fill="white"/>
<path d="M288.47 277.93L344.334 400.03L297.524 274.18" fill="white"/>
<path d="M305.36 346.05C306.661 372.013 321.376 383.509 318.484 407.166C324.832 388.454 309.533 373.951 310.404 346.318" fill="white"/>
<path d="M293 355.711C336.979 355.711 372.631 320.048 372.631 276.054C372.631 232.06 336.979 196.396 293 196.396C249.021 196.396 213.368 232.06 213.368 276.054C213.368 320.048 249.021 355.711 293 355.711Z" fill="black" stroke="white" stroke-width="1.2253"/>
</g>
<g filter="url(#filter0_d_10_2)">
<circle cx="304" cy="300" r="300" fill="black"/>
<circle cx="304" cy="300" r="296" stroke="white" stroke-width="8"/>
</g>
<circle cx="304" cy="300" r="279.25" stroke="#EBD516" stroke-width="1.5"/>
<circle cx="304" cy="300" r="149.25" stroke="#EBD516" stroke-width="1.5"/>
<circle cx="304" cy="300" r="100" fill="#EBD516"/>
<line x1="304.75" y1="20" x2="304.75" y2="150" stroke="#EBD516" stroke-width="1.5"/>
<line x1="304.75" y1="450" x2="304.75" y2="580" stroke="#EBD516" stroke-width="1.5"/>
<line x1="154" y1="300.75" x2="24" y2="300.75" stroke="#EBD516" stroke-width="1.5"/>
<line x1="454" y1="299.25" x2="584" y2="299.25" stroke="#EBD516" stroke-width="1.5"/>
<path d="M298.891 299.595L302.382 392.444C302.382 392.444 302.382 394.19 303.545 394.19C304.709 394.19 304.709 392.444 304.709 392.444L308.2 299.595" fill="black"/>
<path d="M298.891 299.595L302.382 392.444C302.382 392.444 302.382 394.19 303.545 394.19C304.709 394.19 304.709 392.444 304.709 392.444L308.2 299.595" stroke="black" stroke-width="1.8379"/>
<path d="M294.774 329.593C289.429 341.277 294.019 350.825 288.679 361.025C283.34 371.225 286.678 379.627 286.32 384.306C285.962 388.986 282.135 390.286 283.102 391.374C284.068 392.462 288.069 390.306 289.63 384.089C291.191 377.872 287.466 374.292 293.868 361.784C300.271 349.276 295.184 343.636 301.61 332.47" fill="black"/>
<path d="M294.774 329.593C289.429 341.277 294.019 350.825 288.679 361.025C283.34 371.225 286.678 379.627 286.32 384.306C285.962 388.986 282.135 390.286 283.102 391.374C284.068 392.462 288.069 390.306 289.63 384.089C291.191 377.872 287.466 374.292 293.868 361.784C300.271 349.276 295.184 343.636 301.61 332.47" stroke="black" stroke-width="1.8379"/>
<path d="M308.199 299.595L304.708 206.746C304.708 206.746 304.708 205 303.545 205C302.381 205 302.381 206.746 302.381 206.746L298.89 299.595" fill="black"/>
<path d="M308.199 299.595L304.708 206.746C304.708 206.746 304.708 205 303.545 205C302.381 205 302.381 206.746 302.381 206.746L298.89 299.595" stroke="black" stroke-width="1.8379"/>
<path d="M312.316 269.597C317.661 257.913 313.071 248.365 318.411 238.165C323.75 227.965 320.412 219.563 320.77 214.884C321.128 210.204 324.954 208.904 323.988 207.816C323.022 206.728 319.021 208.884 317.46 215.101C315.899 221.318 319.624 224.898 313.222 237.406C306.819 249.914 311.906 255.554 305.48 266.72" fill="black"/>
<path d="M312.316 269.597C317.661 257.913 313.071 248.365 318.411 238.165C323.75 227.965 320.412 219.563 320.77 214.884C321.128 210.204 324.954 208.904 323.988 207.816C323.022 206.728 319.021 208.884 317.46 215.101C315.899 221.318 319.624 224.898 313.222 237.406C306.819 249.914 311.906 255.554 305.48 266.72" stroke="black" stroke-width="1.8379"/>
<path d="M303.545 294.94L210.745 298.432C210.745 298.432 209 298.432 209 299.597C209 300.761 210.745 300.761 210.745 300.761L303.545 304.254" fill="black"/>
<path d="M303.545 294.94L210.745 298.432C210.745 298.432 209 298.432 209 299.597C209 300.761 210.745 300.761 210.745 300.761L303.545 304.254" stroke="black" stroke-width="1.8379"/>
<path d="M273.565 290.821C261.888 285.474 252.345 290.066 242.15 284.723C231.956 279.381 223.559 282.721 218.881 282.363C214.204 282.005 212.905 278.176 211.818 279.143C210.731 280.11 212.885 284.113 219.098 285.674C225.312 287.236 228.89 283.509 241.391 289.915C253.892 296.322 259.529 291.231 270.689 297.662" fill="black"/>
<path d="M273.565 290.821C261.888 285.474 252.345 290.066 242.15 284.723C231.956 279.381 223.559 282.721 218.881 282.363C214.204 282.005 212.905 278.176 211.818 279.143C210.731 280.11 212.885 284.113 219.098 285.674C225.312 287.236 228.89 283.509 241.391 289.915C253.892 296.322 259.529 291.231 270.689 297.662" stroke="black" stroke-width="1.8379"/>
<path d="M303.545 304.25L396.345 300.758C396.345 300.758 398.09 300.758 398.09 299.593C398.09 298.429 396.345 298.429 396.345 298.429L303.545 294.936" fill="black"/>
<path d="M303.545 304.25L396.345 300.758C396.345 300.758 398.09 300.758 398.09 299.593C398.09 298.429 396.345 298.429 396.345 298.429L303.545 294.936" stroke="black" stroke-width="1.8379"/>
<path d="M333.525 308.369C345.203 313.716 354.746 309.124 364.94 314.467C375.134 319.809 383.532 316.469 388.209 316.827C392.886 317.185 394.186 321.014 395.273 320.047C396.36 319.08 394.205 315.077 387.992 313.516C381.779 311.954 378.201 315.681 365.7 309.275C353.198 302.868 347.562 307.959 336.401 301.528" fill="black"/>
<path d="M333.525 308.369C345.203 313.716 354.746 309.124 364.94 314.467C375.134 319.809 383.532 316.469 388.209 316.827C392.886 317.185 394.186 321.014 395.273 320.047C396.36 319.08 394.205 315.077 387.992 313.516C381.779 311.954 378.201 315.681 365.7 309.275C353.198 302.868 347.562 307.959 336.401 301.528" stroke="black" stroke-width="1.8379"/>
<path d="M300.254 296.303L237.107 364.427C237.107 364.427 235.873 365.661 236.696 366.485C237.518 367.308 238.753 366.073 238.753 366.073L306.838 302.89" fill="black"/>
<path d="M300.254 296.303L237.107 364.427C237.107 364.427 235.873 365.661 236.696 366.485C237.518 367.308 238.753 366.073 238.753 366.073L306.838 302.89" stroke="black" stroke-width="1.8379"/>
<path d="M276.144 314.601C264.108 319.082 260.605 329.08 249.621 332.515C238.637 335.95 235.059 344.253 231.499 347.308C227.94 350.363 224.315 348.576 224.229 350.029C224.144 351.481 228.496 352.787 233.993 349.496C239.491 346.204 239.387 341.038 252.754 336.723C266.121 332.408 266.509 324.821 278.945 321.472" fill="black"/>
<path d="M276.144 314.601C264.108 319.082 260.605 329.08 249.621 332.515C238.637 335.95 235.059 344.253 231.499 347.308C227.94 350.363 224.315 348.576 224.229 350.029C224.144 351.481 228.496 352.787 233.993 349.496C239.491 346.204 239.387 341.038 252.754 336.723C266.121 332.408 266.509 324.821 278.945 321.472" stroke="black" stroke-width="1.8379"/>
<path d="M306.836 302.887L369.983 234.763C369.983 234.763 371.217 233.529 370.394 232.705C369.572 231.882 368.337 233.117 368.337 233.117L300.252 296.3" fill="black"/>
<path d="M306.836 302.887L369.983 234.763C369.983 234.763 371.217 233.529 370.394 232.705C369.572 231.882 368.337 233.117 368.337 233.117L300.252 296.3" stroke="black" stroke-width="1.8379"/>
<path d="M330.947 284.589C342.983 280.108 346.486 270.11 357.47 266.675C368.453 263.241 372.031 254.937 375.591 251.882C379.151 248.827 382.776 250.614 382.861 249.161C382.947 247.709 378.594 246.403 373.097 249.694C367.6 252.986 367.704 258.152 354.337 262.467C340.969 266.782 340.581 274.369 328.145 277.718" fill="black"/>
<path d="M330.947 284.589C342.983 280.108 346.486 270.11 357.47 266.675C368.453 263.241 372.031 254.937 375.591 251.882C379.151 248.827 382.776 250.614 382.861 249.161C382.947 247.709 378.594 246.403 373.097 249.694C367.6 252.986 367.704 258.152 354.337 262.467C340.969 266.782 340.581 274.369 328.145 277.718" stroke="black" stroke-width="1.8379"/>
<path d="M306.836 296.303L238.75 233.12C238.75 233.12 237.516 231.885 236.693 232.708C235.87 233.531 237.104 234.766 237.104 234.766L300.252 302.89" fill="black"/>
<path d="M306.836 296.303L238.75 233.12C238.75 233.12 237.516 231.885 236.693 232.708C235.87 233.531 237.104 234.766 237.104 234.766L300.252 302.89" stroke="black" stroke-width="1.8379"/>
<path d="M288.548 272.181C284.07 260.138 274.077 256.634 270.644 245.643C267.211 234.653 258.913 231.074 255.859 227.512C252.805 223.95 254.592 220.323 253.14 220.237C251.688 220.152 250.382 224.506 253.672 230.007C256.962 235.507 262.126 235.403 266.438 248.778C270.751 262.152 278.333 262.541 281.681 274.983" fill="black"/>
<path d="M288.548 272.181C284.07 260.138 274.077 256.634 270.644 245.643C267.211 234.653 258.913 231.074 255.859 227.512C252.805 223.95 254.592 220.323 253.14 220.237C251.688 220.152 250.382 224.506 253.672 230.007C256.962 235.507 262.126 235.403 266.438 248.778C270.751 262.152 278.333 262.541 281.681 274.983" stroke="black" stroke-width="1.8379"/>
<path d="M300.254 302.887L368.34 366.07C368.34 366.07 369.574 367.305 370.397 366.482C371.22 365.659 369.986 364.424 369.986 364.424L306.838 296.3" fill="black"/>
<path d="M300.254 302.887L368.34 366.07C368.34 366.07 369.574 367.305 370.397 366.482C371.22 365.659 369.986 364.424 369.986 364.424L306.838 296.3" stroke="black" stroke-width="1.8379"/>
<path d="M318.542 327.009C323.021 339.052 333.013 342.556 336.446 353.547C339.879 364.537 348.178 368.116 351.232 371.678C354.286 375.24 352.499 378.867 353.951 378.953C355.403 379.038 356.708 374.684 353.418 369.183C350.129 363.682 344.965 363.787 340.652 350.412C336.34 337.038 328.757 336.649 325.41 324.207" fill="black"/>
<path d="M318.542 327.009C323.021 339.052 333.013 342.556 336.446 353.547C339.879 364.537 348.178 368.116 351.232 371.678C354.286 375.24 352.499 378.867 353.951 378.953C355.403 379.038 356.708 374.684 353.418 369.183C350.129 363.682 344.965 363.787 340.652 350.412C336.34 337.038 328.757 336.649 325.41 324.207" stroke="black" stroke-width="1.8379"/>
<path d="M299.247 297.814L266.96 384.929C266.96 384.929 266.292 386.542 267.367 386.988C268.442 387.433 269.11 385.82 269.11 385.82L307.848 301.374" fill="black"/>
<path d="M299.247 297.814L266.96 384.929C266.96 384.929 266.292 386.542 267.367 386.988C268.442 387.433 269.11 385.82 269.11 385.82L307.848 301.374" stroke="black" stroke-width="1.8379"/>
<path d="M283.969 323.95C274.563 332.698 275.15 343.276 266.316 350.656C257.482 358.035 257.353 367.075 255.232 371.262C253.112 375.448 249.079 375.184 249.556 376.559C250.033 377.934 254.553 377.474 258.373 372.328C262.193 367.182 260.121 362.449 270.82 353.344C281.52 344.239 278.977 337.081 289.185 329.225" fill="black"/>
<path d="M283.969 323.95C274.563 332.698 275.15 343.276 266.316 350.656C257.482 358.035 257.353 367.075 255.232 371.262C253.112 375.448 249.079 375.184 249.556 376.559C250.033 377.934 254.553 377.474 258.373 372.328C262.193 367.182 260.121 362.449 270.82 353.344C281.52 344.239 278.977 337.081 289.185 329.225" stroke="black" stroke-width="1.8379"/>
<path d="M307.843 301.376L340.13 214.261C340.13 214.261 340.798 212.648 339.723 212.202C338.648 211.757 337.98 213.37 337.98 213.37L299.242 297.816" fill="black"/>
<path d="M307.843 301.376L340.13 214.261C340.13 214.261 340.798 212.648 339.723 212.202C338.648 211.757 337.98 213.37 337.98 213.37L299.242 297.816" stroke="black" stroke-width="1.8379"/>
<path d="M323.12 275.24C332.527 266.492 331.939 255.913 340.773 248.534C349.607 241.155 349.736 232.115 351.857 227.928C353.977 223.742 358.01 224.006 357.533 222.631C357.056 221.256 352.536 221.716 348.716 226.862C344.896 232.008 346.968 236.741 336.269 245.846C325.569 254.951 328.112 262.109 317.904 269.965" fill="black"/>
<path d="M323.12 275.24C332.527 266.492 331.939 255.913 340.773 248.534C349.607 241.155 349.736 232.115 351.857 227.928C353.977 223.742 358.01 224.006 357.533 222.631C357.056 221.256 352.536 221.716 348.716 226.862C344.896 232.008 346.968 236.741 336.269 245.846C325.569 254.951 328.112 262.109 317.904 269.965" stroke="black" stroke-width="1.8379"/>
<path d="M305.326 295.291L218.258 262.987C218.258 262.987 216.646 262.318 216.2 263.394C215.755 264.47 217.368 265.138 217.368 265.138L301.766 303.896" fill="black"/>
<path d="M305.326 295.291L218.258 262.987C218.258 262.987 216.646 262.318 216.2 263.394C215.755 264.47 217.368 265.138 217.368 265.138L301.766 303.896" stroke="black" stroke-width="1.8379"/>
<path d="M279.204 280.01C270.461 270.598 259.888 271.187 252.513 262.347C245.138 253.508 236.102 253.378 231.918 251.257C227.734 249.135 227.998 245.1 226.624 245.577C225.25 246.054 225.71 250.578 230.853 254.4C235.996 258.222 240.727 256.148 249.826 266.853C258.926 277.559 266.08 275.014 273.931 285.228" fill="black"/>
<path d="M279.204 280.01C270.461 270.598 259.888 271.187 252.513 262.347C245.138 253.508 236.102 253.378 231.918 251.257C227.734 249.135 227.998 245.1 226.624 245.577C225.25 246.054 225.71 250.578 230.853 254.4C235.996 258.222 240.727 256.148 249.826 266.853C258.926 277.559 266.08 275.014 273.931 285.228" stroke="black" stroke-width="1.8379"/>
<path d="M301.764 303.899L388.832 336.203C388.832 336.203 390.444 336.872 390.89 335.796C391.335 334.72 389.722 334.052 389.722 334.052L305.324 295.294" fill="black"/>
<path d="M301.764 303.899L388.832 336.203C388.832 336.203 390.444 336.872 390.89 335.796C391.335 334.72 389.722 334.052 389.722 334.052L305.324 295.294" stroke="black" stroke-width="1.8379"/>
<path d="M327.888 319.18C336.632 328.592 347.204 328.003 354.579 336.843C361.954 345.682 370.99 345.812 375.174 347.933C379.358 350.055 379.094 354.09 380.468 353.613C381.842 353.136 381.383 348.612 376.24 344.79C371.097 340.968 366.366 343.042 357.266 332.337C348.167 321.631 341.012 324.176 333.161 313.962" fill="black"/>
<path d="M327.888 319.18C336.632 328.592 347.204 328.003 354.579 336.843C361.954 345.682 370.99 345.812 375.174 347.933C379.358 350.055 379.094 354.09 380.468 353.613C381.842 353.136 381.383 348.612 376.24 344.79C371.097 340.968 366.366 343.042 357.266 332.337C348.167 321.631 341.012 324.176 333.161 313.962" stroke="black" stroke-width="1.8379"/>
<path d="M301.764 295.291L217.365 334.05C217.365 334.05 215.753 334.718 216.198 335.793C216.644 336.869 218.256 336.201 218.256 336.201L305.324 303.896" fill="black"/>
<path d="M301.764 295.291L217.365 334.05C217.365 334.05 215.753 334.718 216.198 335.793C216.644 336.869 218.256 336.201 218.256 336.201L305.324 303.896" stroke="black" stroke-width="1.8379"/>
<path d="M272.491 302.968C259.657 302.499 252.597 310.395 241.135 309.362C229.674 308.33 223.193 314.631 218.735 316.091C214.277 317.551 211.612 314.511 210.978 315.821C210.343 317.13 213.865 320.004 220.202 319.067C226.54 318.131 228.421 313.318 242.421 314.45C256.421 315.582 259.681 308.721 272.452 310.388" fill="black"/>
<path d="M272.491 302.968C259.657 302.499 252.597 310.395 241.135 309.362C229.674 308.33 223.193 314.631 218.735 316.091C214.277 317.551 211.612 314.511 210.978 315.821C210.343 317.13 213.865 320.004 220.202 319.067C226.54 318.131 228.421 313.318 242.421 314.45C256.421 315.582 259.681 308.721 272.452 310.388" stroke="black" stroke-width="1.8379"/>
<path d="M305.326 303.899L389.725 265.14C389.725 265.14 391.337 264.472 390.892 263.396C390.446 262.321 388.834 262.989 388.834 262.989L301.766 295.294" fill="black"/>
<path d="M305.326 303.899L389.725 265.14C389.725 265.14 391.337 264.472 390.892 263.396C390.446 262.321 388.834 262.989 388.834 262.989L301.766 295.294" stroke="black" stroke-width="1.8379"/>
<path d="M334.599 296.222C347.433 296.691 354.492 288.795 365.954 289.828C377.416 290.86 383.897 284.559 388.354 283.099C392.812 281.639 395.477 284.679 396.112 283.369C396.747 282.06 393.225 279.186 386.887 280.123C380.549 281.059 378.669 285.872 364.669 284.74C350.669 283.608 347.408 290.469 334.638 288.802" fill="black"/>
<path d="M334.599 296.222C347.433 296.691 354.492 288.795 365.954 289.828C377.416 290.86 383.897 284.559 388.354 283.099C392.812 281.639 395.477 284.679 396.112 283.369C396.747 282.06 393.225 279.186 386.887 280.123C380.549 281.059 378.669 285.872 364.669 284.74C350.669 283.608 347.408 290.469 334.638 288.802" stroke="black" stroke-width="1.8379"/>
<path d="M307.843 297.814L269.105 213.368C269.105 213.368 268.438 211.755 267.362 212.2C266.287 212.646 266.955 214.259 266.955 214.259L299.242 301.374" fill="black"/>
<path d="M307.843 297.814L269.105 213.368C269.105 213.368 268.438 211.755 267.362 212.2C266.287 212.646 266.955 214.259 266.955 214.259L299.242 301.374" stroke="black" stroke-width="1.8379"/>
<path d="M300.178 268.524C300.647 255.683 292.755 248.619 293.787 237.15C294.819 225.682 288.521 219.198 287.062 214.738C285.603 210.277 288.641 207.611 287.332 206.976C286.023 206.341 283.152 209.864 284.087 216.206C285.023 222.547 289.833 224.428 288.702 238.436C287.571 252.443 294.428 255.706 292.762 268.483" fill="black"/>
<path d="M300.178 268.524C300.647 255.683 292.755 248.619 293.787 237.15C294.819 225.682 288.521 219.198 287.062 214.738C285.603 210.277 288.641 207.611 287.332 206.976C286.023 206.341 283.152 209.864 284.087 216.206C285.023 222.547 289.833 224.428 288.702 238.436C287.571 252.443 294.428 255.706 292.762 268.483" stroke="black" stroke-width="1.8379"/>
<path d="M299.247 301.376L337.985 385.822C337.985 385.822 338.652 387.435 339.727 386.99C340.803 386.544 340.135 384.931 340.135 384.931L307.848 297.816" fill="black"/>
<path d="M299.247 301.376L337.985 385.822C337.985 385.822 338.652 387.435 339.727 386.99C340.803 386.544 340.135 384.931 340.135 384.931L307.848 297.816" stroke="black" stroke-width="1.8379"/>
<path d="M306.912 330.666C306.443 343.507 314.335 350.571 313.303 362.04C312.271 373.508 318.569 379.992 320.028 384.452C321.487 388.913 318.449 391.579 319.758 392.214C321.067 392.849 323.938 389.326 323.003 382.984C322.067 376.643 317.257 374.762 318.388 360.754C319.519 346.747 312.662 343.484 314.328 330.707" fill="black"/>
<path d="M306.912 330.666C306.443 343.507 314.335 350.571 313.303 362.04C312.271 373.508 318.569 379.992 320.028 384.452C321.487 388.913 318.449 391.579 319.758 392.214C321.067 392.849 323.938 389.326 323.003 382.984C322.067 376.643 317.257 374.762 318.388 360.754C319.519 346.747 312.662 343.484 314.328 330.707" stroke="black" stroke-width="1.8379"/>
<path d="M301.218 299.595L303.545 363.339L305.872 299.595" fill="white"/>
<path d="M296.246 332.562C292.1 344.193 296.467 351.913 290.9 361.77C297.085 354.713 293.008 345.566 298.41 333.596" fill="white"/>
<path d="M301.897 297.947L258.495 344.666L305.188 301.24" fill="white"/>
<path d="M301.394 298.702L279.164 358.484L305.693 300.483" fill="white"/>
<path d="M284.193 327.261C275.914 336.419 276.996 345.224 268.083 352.199C276.496 348.047 276.228 338.035 285.797 329.045" fill="white"/>
<path d="M305.872 299.595L303.545 235.851L301.218 299.595" fill="white"/>
<path d="M310.844 266.623C314.99 254.992 310.623 247.272 316.19 237.415C310.005 244.472 314.082 253.619 308.68 265.589" fill="white"/>
<path d="M303.545 297.267L239.838 299.596L303.545 301.924" fill="white"/>
<path d="M270.594 292.294C258.969 288.145 251.253 292.515 241.401 286.946C248.455 293.134 257.597 289.054 269.559 294.459" fill="white"/>
<path d="M275.085 317.746C263.933 323.037 261.565 331.586 250.663 334.617C260.024 334.003 263.605 324.65 275.884 320.009" fill="white"/>
<path d="M305.193 297.947L258.5 254.521L301.902 301.24" fill="white"/>
<path d="M285.405 271.117C280.117 259.959 271.573 257.59 268.543 246.682C269.158 256.048 278.505 259.631 283.143 271.917" fill="white"/>
<path d="M305.696 300.488L327.926 240.706L301.397 298.707" fill="white"/>
<path d="M304.438 297.443L244.691 275.201L302.657 301.746" fill="white"/>
<path d="M275.895 280.233C266.741 271.949 257.941 273.032 250.97 264.114C255.12 272.532 265.126 272.263 274.111 281.838" fill="white"/>
<path d="M302.652 297.443L244.686 323.988L304.433 301.746" fill="white"/>
<path d="M270.309 305.466C257.983 306.085 252.525 313.076 241.294 311.702C250.178 314.719 257.063 307.45 270.183 307.863" fill="white"/>
<path d="M305.696 298.702L279.167 240.701L301.397 300.483" fill="white"/>
<path d="M297.675 266.343C297.057 254.01 290.069 248.549 291.442 237.311C288.427 246.2 295.693 253.089 295.28 266.216" fill="white"/>
<path d="M303.545 301.923L367.252 299.594L303.545 297.266" fill="white"/>
<path d="M336.498 306.896C348.123 311.045 355.839 306.675 365.69 312.244C358.637 306.056 349.495 310.136 337.532 304.731" fill="white"/>
<path d="M305.193 301.243L348.595 254.524L301.902 297.95" fill="white"/>
<path d="M332.006 281.444C343.157 276.153 345.525 267.604 356.428 264.573C347.066 265.187 343.485 274.54 331.206 279.181" fill="white"/>
<path d="M301.897 301.243L348.59 344.669L305.188 297.95" fill="white"/>
<path d="M321.686 328.073C326.974 339.231 335.518 341.6 338.548 352.508C337.934 343.142 328.587 339.559 323.948 327.273" fill="white"/>
<path d="M322.897 271.929C331.176 262.771 330.094 253.966 339.007 246.991C330.594 251.143 330.862 261.155 321.293 270.145" fill="white"/>
<path d="M302.652 301.747L362.399 323.988L304.433 297.444" fill="white"/>
<path d="M331.194 318.957C340.347 327.241 349.147 326.158 356.118 335.076C351.968 326.658 341.962 326.927 332.977 317.352" fill="white"/>
<path d="M304.438 301.747L362.404 275.202L302.657 297.444" fill="white"/>
<path d="M336.778 293.724C349.105 293.105 354.562 286.114 365.794 287.488C356.91 284.471 350.025 291.74 336.905 291.327" fill="white"/>
<path d="M301.394 300.488L327.923 358.489L305.693 298.707" fill="white"/>
<path d="M309.415 332.847C310.033 345.18 317.021 350.641 315.647 361.879C318.662 352.99 311.397 346.101 311.81 332.974" fill="white"/>
<path d="M303.545 337.436C324.431 337.436 341.362 320.495 341.362 299.597C341.362 278.699 324.431 261.758 303.545 261.758C282.659 261.758 265.728 278.699 265.728 299.597C265.728 320.495 282.659 337.436 303.545 337.436Z" fill="black" stroke="white" stroke-width="1.2253"/>
<defs>
<filter id="filter0_d_10_2" x="0" y="0" width="608" height="608" filterUnits="userSpaceOnUse" color-interpolation-filters="sRGB">
<feFlood flood-opacity="0" result="BackgroundImageFix"/>
<feColorMatrix in="SourceAlpha" type="matrix" values="0 0 0 0 0 0 0 0 0 0 0 0 0 0 0 0 0 0 127 0" result="hardAlpha"/>
<feOffset dy="4"/>
<feGaussianBlur stdDeviation="2"/>
<feComposite in2="hardAlpha" operator="out"/>
<feColorMatrix type="matrix" values="0 0 0 0 0 0 0 0 0 0 0 0 0 0 0 0 0 0 0.25 0"/>
<feBlend mode="normal" in2="BackgroundImageFix" result="effect1_dropShadow_10_2"/>
<feBlend mode="normal" in="SourceGraphic" in2="effect1_dropShadow_10_2" result="shape"/>
</filter>
<clipPath id="clip0_10_2">
<rect width="400" height="400.11" fill="white" transform="translate(93 76)"/>
</clipPath>
</defs>
</svg>
