<svg xmlns="http://www.w3.org/2000/svg" xmlns:xlink="http://www.w3.org/1999/xlink" fill="none" viewBox="0 0 608 608" xmlns:v="https://vecta.io/nano"><style><![CDATA[.B{stroke:#fff}.C{fill:#fff}.D{stroke-dasharray:2 2}.E{color-interpolation-filters:sRGB}.F{flood-opacity:0}]]></style><g filter="url(#A)"><circle cx="304" cy="300" r="300" fill="#000"/><circle cx="304" cy="300" r="296" stroke-width="8" class="B"/></g><g stroke-width="1.5"><circle cx="304" cy="300" r="279.25" stroke="url(#E)"/><circle cx="304" cy="300" r="149.25" stroke="url(#F)"/></g><circle cx="304" cy="300" r="100" fill="#53277e"/><g stroke-width="1.5"><path stroke="url(#G)" d="M 304.7500000000001 20.0000000000001 L 304.75 150"/><path stroke="url(#H)" d="M 304.7500000000001 450.0000000000001 L 304.75 580"/><path stroke="url(#I)" d="M 154.0000000000001 300.7500000000001 L 24 300.75"/><path stroke="url(#J)" d="M 454.0000000000001 299.2500000000001 L 584 299.25"/></g><path d="M211.55 385.96c.424-.386.671-.729.741-1.027.08-.289.027-.575-.158-.857-.176-.291-.44-.61-.792-.957l-.811-.83-3.074 2.803-.722.632c-.197.18-.369.318-.515.415l2.347 2.515a3.85 3.85 0 0 0 1.151.846c.416.18.868.21 1.355.091s1.011-.435 1.572-.947l.593.65-3.081 2.647-7.007-7.684.65-.593c.316.307.596.476.84.506.253.04.516-.029.788-.205s.591-.43.956-.763l6.147-5.606.634-.551.559-.456-.528-.52-.515-.505.813-.741 6.577 7.212-2.608 2.513-.593-.65c.562-.512.905-.997 1.03-1.454.134-.446.115-.863-.056-1.248-.162-.376-.401-.726-.716-1.052l-.973-1.008c-.278-.305-.544-.487-.796-.546-.242-.068-.504-.019-.785.148-.272.157-.605.416-.999.775l-2.32 2.116 2.224 2.438 1.19-1.248.741.813-3.266 2.979-.593-.651zM215.3 397l.559-.679a2.67 2.67 0 0 0 1.549.29c.534-.061 1.188-.195 1.964-.403l4.17-1.099.189-3.343.107-2.27.137-1.078.231-.847-.43-.328-.414-.315.7-.849 4.23 3.484-.56.679-.522-.404c-.359-.278-.635-.393-.829-.346-.186.037-.32.168-.403.394a4.04 4.04 0 0 0-.149.81l-.133 1.704-.134 2.144 3.002-.844 1.429-.352a6.12 6.12 0 0 1 1.062-.187l-.659-.491-.643-.478.7-.849 3.195 2.632-.559.68c-.332-.205-.713-.32-1.142-.345s-.885.005-1.369.09l-1.473.341-3.587.958-.082 2.239-.058 2.051-.07 1.627-.05 1.099-.068 1.058.429.328.399.302-.699.849-4.06-3.344.559-.679c.383.332.682.493.899.481s.367-.121.452-.328c.092-.217.144-.468.154-.753l.043-1.908.119-2.442-1.618.455-1.616.483-1.204.33a11.98 11.98 0 0 1-1.169.255l.643.478.627.465-.699.849L215.3 397zm24.26 17.51l.401-.805c.358.178.68.219.966.123s.575-.272.867-.529l.982-.896 8.545-8.101.717.357-1.08 11.996c-.017.274-.064.638-.141 1.091-.071.442-.18.797-.329 1.065.215.077.418.164.609.259l.591.249-.491.985-4.35-2.166.392-.788c.423.196.743.243.957.142a.9.9 0 0 0 .482-.565c.101-.262.166-.543.195-.841l.185-1.717-4.44-2.077-1.294 1.299-.572.565-.563.502c.227.083.46.184.699.303l.68.294-.499 1.002-3.509-1.747zm5.862-3.024l3.76 1.872.378-3.588.168-1.369.203-1.306-.018-.009-.812.825-.992.958-2.687 2.617zm22.328 4.564c.155-.665.188-1.302.099-1.909a3.31 3.31 0 0 0-.681-1.604c-.36-.474-.889-.823-1.588-1.046-.707-.24-1.335-.235-1.885.015s-.918.653-1.107 1.208c-.167.493-.169.957-.007 1.392.166.422.438.845.815 1.269l1.34 1.342 1.227 1.177a8.16 8.16 0 0 1 1.049 1.327 3.76 3.76 0 0 1 .574 1.483c.089.524.032 1.088-.174 1.694a3.55 3.55 0 0 1-1.192 1.708c-.555.431-1.227.689-2.016.773-.776.089-1.644-.03-2.603-.356-.543-.184-1.09-.461-1.64-.831-.538-.365-1.002-.783-1.391-1.253l-.175.827-1.156-.392 1.339-4.192.909.309c-.272 1.132-.164 2.098.325 2.898.506.791 1.239 1.35 2.199 1.675.479.163.945.223 1.396.179a2.33 2.33 0 0 0 1.186-.443c.338-.251.583-.598.733-1.04.175-.517.165-1.006-.03-1.467-.183-.456-.472-.892-.866-1.308l-1.233-1.221-1.271-1.234a7.76 7.76 0 0 1-1.011-1.314c-.28-.461-.459-.951-.536-1.47-.073-.532-.007-1.101.199-1.707.12-.354.309-.705.569-1.053a3.43 3.43 0 0 1 1.023-.899c.423-.251.929-.396 1.52-.434.607-.048 1.309.064 2.104.334.48.162.993.414 1.539.754a4.78 4.78 0 0 1 1.397 1.298l.195-.821 1.136.385-1.44 4.243-.871-.296zm17.94 4.21c.133-.748.169-1.386.109-1.914s-.25-.952-.568-1.272c-.304-.318-.772-.531-1.403-.641l-1.413-.275-2.009 10.204-.207.958a4.6 4.6 0 0 1-.17.66c.254.022.525.062.813.118l.812.117-.21 1.08-4.986-.972.168-.863c.437.058.762.026.976-.096s.378-.333.491-.637c.116-.317.22-.711.312-1.183l1.905-9.776-1.652-.301c-.799-.156-1.433-.001-1.904.464s-.817 1.261-1.036 2.386l-.923-.18.944-4.217 11.583 2.257-.709 4.263-.923-.18zm5.91 10.49l.047-.879c.441-.003.759-.079.954-.229.208-.149.348-.382.418-.699s.119-.721.146-1.213l.448-8.308.065-.838.079-.717h-.741c-.267-.001-.508 0-.721.001l.059-1.098 2.457.113 2.497.134c1.251.068 2.275.27 3.072.607.797.323 1.38.775 1.749 1.356.383.581.544 1.298.485 2.149-.015.533-.151 1.06-.406 1.58-.254.507-.659.953-1.213 1.337s-1.304.657-2.248.82c.258.174.486.407.683.698l.609.974 1.117 1.943.644 1.056c.198.291.426.524.683.698.259.161.574.251.947.272l-.047.878-2.776-.149c-.331-.312-.613-.641-.848-.988l-.717-1.2-1.257-2.311-.513-.889c-.17-.316-.362-.587-.577-.812l-.639-.035-.619-.033-.178 3.295-.073.978a4.66 4.66 0 0 1-.076.677l.5.006.541-.01.481.005-.059 1.099-4.973-.268zm5.048-6.698c.733.026 1.365-.053 1.895-.238.532-.199.95-.517 1.254-.954.304-.451.477-1.043.516-1.775.029-.546-.026-1.01-.165-1.391s-.35-.693-.631-.935c-.28-.256-.624-.441-1.031-.557-.394-.128-.824-.204-1.29-.229-.426-.023-.743.04-.951.189-.195.149-.328.376-.398.679s-.117.695-.143 1.174l-.211 3.914.556.091c.185.023.385.034.599.032zm17.202-6.322c-.425.041-.732.154-.92.34-.189.173-.3.421-.332.744-.033.309-.033.717 0 1.222l.538 8.203.044.979c.018.279.02.506.004.681a6.38 6.38 0 0 1 .736-.088l.716-.087.072 1.098-4.91.321-.057-.878c.437-.055.744-.169.92-.341.189-.172.299-.42.332-.743s.032-.73 0-1.223l-.544-8.302-.035-.839-.008-.721-.735.088-.716.087-.072-1.098 4.909-.322.058.879zm15.18 1.29c-.188-.657-.469-1.229-.843-1.717s-.832-.844-1.375-1.07c-.545-.239-1.177-.286-1.896-.141-.735.134-1.281.445-1.64.93a1.98 1.98 0 0 0-.379 1.595c.094.511.317.918.67 1.219.351.288.795.526 1.33.712l1.824.521 1.644.431c.56.169 1.08.385 1.562.649a3.74 3.74 0 0 1 1.223 1.017c.333.413.558.935.673 1.564.134.735.064 1.425-.211 2.072s-.736 1.199-1.385 1.656c-.635.455-1.451.774-2.447.956-.564.103-1.177.127-1.838.072a6.66 6.66 0 0 1-1.825-.418l.25.808-1.2.219-.871-4.313.945-.173c.313 1.122.878 1.913 1.695 2.374.826.445 1.738.576 2.735.394.499-.091.934-.266 1.307-.524s.647-.579.82-.963.219-.806.135-1.265c-.098-.538-.345-.96-.74-1.267-.382-.31-.846-.551-1.393-.722l-1.671-.467-1.711-.459a7.75 7.75 0 0 1-1.523-.657 3.92 3.92 0 0 1-1.183-1.024c-.323-.429-.541-.958-.657-1.588a3.84 3.84 0 0 1-.015-1.196c.057-.431.209-.859.456-1.283s.62-.798 1.117-1.12c.508-.336 1.175-.58 2.001-.732.499-.091 1.069-.121 1.712-.089.656.029 1.273.18 1.852.454l-.23-.812 1.181-.216.806 4.407-.905.166zm12.99 10.44l-.726-.264c.088-.221.159-.52.214-.898a5.7 5.7 0 0 0 .072-1.232 3.21 3.21 0 0 0-.232-1.203 1.11 1.11 0 0 1-.432.232c-.268.08-.531.061-.789-.058-.261-.131-.44-.356-.534-.675-.111-.371-.089-.697.064-.979.161-.298.402-.495.721-.59.499-.148.923-.079 1.272.207.358.269.615.665.77 1.189.103.345.159.767.167 1.265.022.494-.016.999-.113 1.515a6.27 6.27 0 0 1-.454 1.491zm17.7-10.35l-.419-.796c.354-.186.575-.424.664-.712s.115-.626.077-1.012l-.153-1.321-1.582-11.668.707-.373 9.106 7.884c.212.174.48.425.803.752.317.315.541.612.672.889a5.89 5.89 0 0 1 .566-.343l.547-.334.513.974-4.299 2.265-.411-.778c.407-.229.632-.461.674-.694.049-.252-.01-.492-.176-.721-.154-.236-.344-.452-.569-.65l-1.286-1.154-4.279 2.391.298 1.81.125.793.078.75a7.15 7.15 0 0 1 .654-.39l.636-.38.522.991-3.468 1.827zm.97-6.524l3.716-1.958-2.691-2.403-1.013-.936-.941-.928-.018.009.195 1.141.199 1.365.553 3.71zm15.92-2.956l-.514-.714c.342-.279.542-.538.6-.777.069-.246.032-.515-.112-.806s-.359-.637-.647-1.037l-4.859-6.754-.474-.694-.388-.608-.577.465-.562.453-.642-.893 1.985-1.453 2.03-1.46c1.017-.732 1.942-1.216 2.773-1.453.824-.247 1.562-.261 2.214-.04.662.214 1.237.67 1.725 1.371.322.425.547.92.674 1.486.12.554.084 1.155-.108 1.802s-.604 1.329-1.237 2.048c.31-.026.633.012.97.115l1.085.378 2.088.814 1.164.419c.337.103.66.141.97.115.302-.037.605-.164.908-.382l.513.715-2.256 1.623a5.95 5.95 0 0 1-1.28-.238l-1.31-.486-2.429-1.012-.957-.372c-.33-.14-.65-.23-.958-.271l-.52.374-.503.362 1.927 2.679.556.807a4.55 4.55 0 0 1 .364.576l.395-.309.415-.347.378-.297.642.893-4.043 2.908zm-.265-8.383c.588-.439 1.03-.897 1.328-1.374.29-.487.416-.997.378-1.529-.045-.542-.281-1.111-.71-1.706-.319-.444-.652-.771-1-.98s-.707-.321-1.078-.334c-.378-.023-.762.048-1.152.213-.387.147-.77.357-1.149.63-.347.249-.554.497-.623.743-.058.239-.019.499.116.779a7.03 7.03 0 0 0 .624 1.004l2.29 3.183.489-.279c.159-.098.322-.215.487-.35zm13.865-15.187a5.1 5.1 0 0 0-1.643-.979c-.579-.204-1.158-.253-1.736-.146-.588.097-1.143.403-1.666.917-.542.514-.831 1.072-.866 1.674s.149 1.117.552 1.543c.358.378.767.596 1.227.656.452.05.953.007 1.503-.129l1.812-.559 1.613-.537c.561-.164 1.116-.266 1.664-.308a3.75 3.75 0 0 1 1.58.184c.504.165.977.479 1.417.944.513.542.832 1.159.954 1.851s.038 1.406-.256 2.143c-.284.728-.794 1.441-1.529 2.138-.416.394-.916.748-1.5 1.062-.575.305-1.16.521-1.758.646l.65.541-.885.839-3.084-3.139.697-.661c.875.769 1.78 1.124 2.715 1.064.936-.078 1.772-.466 2.508-1.163.368-.348.637-.732.809-1.152s.226-.838.161-1.255-.256-.794-.577-1.133c-.376-.397-.813-.616-1.312-.658-.489-.051-1.009.001-1.561.156l-1.655.521-1.684.548c-.551.155-1.096.249-1.635.281a3.94 3.94 0 0 1-1.55-.211c-.504-.184-.977-.508-1.417-.973a3.82 3.82 0 0 1-.666-.994c-.188-.392-.293-.833-.318-1.324s.084-1.007.325-1.547c.242-.56.667-1.128 1.277-1.706a7.53 7.53 0 0 1 1.386-1.009 4.78 4.78 0 0 1 1.799-.631l-.635-.554.871-.826 3.081 3.253-.668.633zm14.1-.55a1.22 1.22 0 0 1-.903.438c-.358.009-.684-.112-.978-.364-.284-.243-.444-.547-.482-.913-.039-.385.05-.704.267-.957.234-.273.536-.41.905-.41.358-.009.679.108.963.351.293.252.459.561.497.927a1.14 1.14 0 0 1-.269.928z" class="C"/><g class="B"><path d="M498.58 429v-55"/><path transform="matrix(.6941 -.71986 .69412 .7199 486.21 402.49)" d="M.694 0h17.008v17.008H.694z"/><path transform="matrix(.6941 -.71986 .69412 .7199 498.02 390.94)" d="M0-.5h10.805"/><path transform="matrix(.6941 .71986 -.69412 .7199 491.66 383.16)" d="M0-.5h10.805"/><path transform="matrix(.6941 .71986 -.69412 .7199 498.73 414.69)" d="M0-.5h10.805"/><path transform="matrix(.6941 -.71986 .69412 .7199 490.95 422.47)" d="M0-.5h10.805"/><path d="M112.5 374v55"/><path d="M94 402.5h50m-40-16h34"/></g><path d="M103.5 390l4.763 8.25h-9.526L103.5 390z" class="C"/><circle cx="122.5" cy="414.5" r="7" class="B"/><circle cx="122.5" cy="414.5" r="2.5" class="C"/><g class="B"><path d="M214 529.01V474"/><path d="M186 500.5h55.01m-26.51 1h14v14h-14z"/><path d="M199.5 486.5h14v14h-14zm15 5h9v9h-9z"/><path d="M204.5 500.5h9v9h-9z"/><g class="D"><path d="M159.5 132.5h-14v34h14z"/><path d="M140.5 122.5h24v54h-24z"/><path d="M143.5 127.5h19v44h-19z"/><path d="M147.5 136.5h9v24h-9z"/><path d="M150.5 139.5h4v19h-4z"/></g><circle cx="348" cy="517" r="20.5"/></g><circle cx="348.5" cy="509.5" r="7.5" class="C"/><g class="B"><path d="M331 540l16 5.5 19-5.5m-37-42.5l21-7.5 17 7.5m-236-43h64"/><path d="M137.73 477.58l53.68-34.85"/></g><circle cx="176" cy="466" r="6" class="C"/><g class="B"><circle cx="146" cy="445" r="5.5"/><circle cx="344" cy="86.039" r="20.5"/><circle cx="341.5" cy="97.539" r="7"/></g><g class="C"><circle cx="344" cy="84.039" r="4"/><circle cx="344.5" cy="97.539" r="2.5"/></g><g class="B"><path d="M316 84.539h58"/><path d="M344 115.08V57"/></g><g class="C"><path d="M521.85 251.15c2.645 2.644 4.535 5.947 5.476 9.566a21.01 21.01 0 0 1-.124 11.022 21 21 0 0 1-5.689 9.44c-2.703 2.585-6.048 4.4-9.687 5.259s-7.443.731-11.016-.371a21.01 21.01 0 0 1-9.311-5.9 21.02 21.02 0 0 1-5.04-9.803 21 21 0 0 1 .62-11.005l.477.159c-1.155 3.463-1.363 7.171-.605 10.742a20.5 20.5 0 0 0 4.92 9.568c2.462 2.694 5.599 4.682 9.087 5.758s7.2 1.201 10.752.363a20.5 20.5 0 0 0 9.455-5.133c2.639-2.523 4.556-5.704 5.553-9.215s1.039-7.225.121-10.758a20.5 20.5 0 0 0-5.344-9.337l.355-.355z"/><path d="M514.52 258.22a.5.5 0 0 0-.233.668l1.961 4.05a.5.5 0 1 0 .9-.436l-1.743-3.6 3.601-1.743a.5.5 0 1 0-.436-.9l-4.05 1.961zm19.922 6.771l-19.54-6.794-.329.945 19.541 6.793.328-.944z"/></g><g class="B"><circle cx="490" cy="278" r="4.5"/><circle cx="523.5" cy="277.5" r="7"/><circle cx="499.5" cy="276.5" r="2"/><circle cx="499" cy="285" r="3.5"/><path d="M183.5 87.5h41v41h-41z"/><path d="M222 87l-18 21.538L222 129"/><path d="m204 87l16 21-16 21"/><path d="M192.5 87v42m5-40v40" class="D"/></g><g class="C"><circle cx="212" cy="108" r="4"/><path d="M445 450h24v35h-24z"/></g><path d="m439 428l18 22.5 22-22.5" class="B"/><circle cx="457" cy="432" r="4" class="C"/><path d="M448.88 148.25L467.5 116l18.62 32.25h-37.24zm-12.88.25h65m-39.5 1.5v20m10 7v-28" class="B"/><g class="C"><circle cx="461.5" cy="170.5" r="5.5"/><path d="M471.5 174l1.908 5.873h6.176l-4.996 3.63 1.908 5.874-4.996-3.63-4.996 3.63 1.908-5.874-4.996-3.63h6.176L471.5 174z"/></g><path d="M112.5 205.5h21v21h-21zm-22-21h21v21h-21z" class="B"/><g class="C"><path d="M124.49 188.92a.5.5 0 0 0-.569-.419l-4.449.674a.5.5 0 0 0-.42.569.5.5 0 0 0 .57.419l3.955-.599.599 3.955a.5.5 0 0 0 .569.42.5.5 0 0 0 .419-.57l-.674-4.449zm-28.092 38.372l28-38-.806-.594-28 38 .805.594z"/><circle cx="101" cy="195" r="6"/></g><circle cx="123" cy="216" r="5.5" class="B"/><path d="M270.12 546a1.25 1.25 0 1 0 2.5 0h-2.5zm2.5 0v-37.022h-2.5V546h2.5z" class="C"/><path stroke-width="2" d="M270 508h16" class="B"/><path d="M270 499h8v8h-8z" class="C"/><g class="B"><path stroke-width="2" d="M261 500h12"/><path d="m271.84 492.99l1.665-1.346 1.665 1.346v3.022l-1.665 1.346-1.665-1.346v-3.022z"/><rect x="395.5" y="475.5" width="24" height="49" rx="1.5"/><circle cx="407.5" cy="492.5" r="7" class="D"/><path d="M395 512.5h25"/></g><g class="C"><circle cx="403.5" cy="517.5" r="2.5"/><circle cx="411.5" cy="517.5" r="2.5"/></g><g class="B"><g stroke-linecap="round"><path d="M76.368 291.4c9.35-3.053 12.737-6.553 12.737-16.452 0-4.091 1.802-4.776 5.307-4.776 7.719 0 14.766-7.242 18.044-13.799"/><path d="M90.167 271.29c-6.182-2.627-14.86-8.575-14.86-15.921m22.289 13.801c-.822-4.214-1.072-5.969.826-9.553.863-1.63 1.616-2.214 0-4.01-1.558-1.73-4.32-5.698-6.132-6.604m-3.185 23.347c-6.876 5-11.301 4.963-19.105 1.061m20.105-2.061c8.376 10.721 11.762 0 21.228 0m-12.965-1.9c4.01 0 7.861.208 11.764-1.1 1.837-.615 2.936-2.057 4.861-2.199 2.207-.163 2.896-3.718 4.375 0"/><path d="M90.167 272.35c-.392-2.008-.279-12.877-2.123-13.798"/></g><path d="M494.5 239v-44"/><path d="m489 202l12 13-12 17"/></g><path d="M510 215.5l-5-2.887v5.774l5-2.887zm-27 .5h22.5v-1H483v1zM294 75c0 6.63-2.634 12.989-7.322 17.678A25 25 0 0 1 269 100c-6.63 0-12.989-2.634-17.678-7.322A25 25 0 0 1 244 75h.495a24.51 24.51 0 0 0 7.177 17.328c4.596 4.596 10.829 7.177 17.328 7.177a24.51 24.51 0 0 0 17.328-7.177A24.5 24.5 0 0 0 293.505 75H294z" class="C"/><g class="B"><path d="M269.5 66v50m.36-11.37l6.18 10.28"/><path d="M268.29 76.59l20 14"/><path d="M248 87.39l22.82-10.032-19.32 16.094m158 44.588V83"/><path d="M388 96.5h45m-45 13h45m-45 13h45"/></g><g class="C"><circle cx="421" cy="87" r="4"/><circle cx="421" cy="115" r="4"/><circle cx="421" cy="131" r="4"/><path d="m399 126l5.196 9h-10.392l5.196-9z"/></g><g class="B"><circle cx="91" cy="335" r="20.5" class="D"/><circle cx="93" cy="335" r="15.5"/><circle cx="96" cy="335" r="10.5" class="D"/><circle cx="99" cy="335" r="5.5"/><path d="M112 335.5H70"/></g><g filter="url(#B)" class="B"><path d="M513.5 347v-21"/></g><path d="M506.5 313.5h14v43h-14z" class="B"/><g filter="url(#C)" class="B"><path d="m509 330l4 5 5-5"/></g><g filter="url(#D)" class="C"><path d="M513.5 319l2.165 2.25v4.5L513.5 328l-2.165-2.25v-4.5L513.5 319z"/></g><defs><filter id="A" x="0" y="0" width="608" height="608" filterUnits="userSpaceOnUse" class="E"><feFlood result="A" class="F"/><feColorMatrix in="SourceAlpha" result="B" values="0 0 0 0 0 0 0 0 0 0 0 0 0 0 0 0 0 0 127 0"/><feOffset dy="4"/><feGaussianBlur stdDeviation="2"/><feComposite in2="B" operator="out"/><feColorMatrix values="0 0 0 0 0 0 0 0 0 0 0 0 0 0 0 0 0 0 0.25 0"/><feBlend in2="A"/><feBlend in="SourceGraphic"/></filter><filter id="B" x="509" y="322" width="9" height="29" filterUnits="userSpaceOnUse" class="E"><feFlood class="F"/><feBlend in="SourceGraphic"/><feGaussianBlur stdDeviation="2"/></filter><filter id="C" x="504.61" y="325.65" width="17.744" height="14.102" filterUnits="userSpaceOnUse" class="E"><feFlood class="F"/><feBlend in="SourceGraphic"/><feGaussianBlur stdDeviation="2"/></filter><filter id="D" x="507.34" y="315" width="12.33" height="17" filterUnits="userSpaceOnUse" class="E"><feFlood class="F"/><feBlend in="SourceGraphic"/><feGaussianBlur stdDeviation="2"/></filter><linearGradient id="E" x1="304" x2="304" y1="20" y2="580" xlink:href="#K"><stop stop-color="#ae8625" offset="0"/><stop stop-color="#f7ef8a" offset=".38"/><stop stop-color="#d2ac47" offset=".776"/><stop stop-color="#edc967" offset="1"/></linearGradient><linearGradient id="F" x1="304" x2="304" y1="150" y2="450" xlink:href="#K"><stop stop-color="#ae8625" offset="0"/><stop stop-color="#f7ef8a" offset=".427"/><stop stop-color="#d2ac47" offset=".823"/><stop stop-color="#edc967" offset="1"/></linearGradient><linearGradient id="G" x1="304" x2="303" y1="85" y2="85" xlink:href="#K"><stop stop-color="#ae8625" offset="0"/><stop stop-color="#f7ef8a" offset=".391"/><stop stop-color="#d2ac47" offset=".781"/><stop stop-color="#edc967" offset="1"/></linearGradient><linearGradient id="H" x1="304" x2="303" y1="515" y2="515" xlink:href="#K"><stop stop-color="#ae8625" offset="0"/><stop stop-color="#f7ef8a" offset=".432"/><stop stop-color="#d2ac47" offset=".859"/><stop stop-color="#edc967" offset="1"/></linearGradient><linearGradient id="I" x1="89" x2="89" y1="300" y2="299" xlink:href="#K"><stop stop-color="#ae8625" offset="0"/><stop stop-color="#f7ef8a" offset=".422"/><stop stop-color="#d2ac47" offset=".823"/><stop stop-color="#edc967" offset="1"/></linearGradient><linearGradient id="J" x1="519" x2="519" y1="300" y2="301" xlink:href="#K"><stop stop-color="#ae8625" offset="0"/><stop stop-color="#f7ef8a" offset=".453"/><stop stop-color="#d2ac47" offset=".818"/><stop stop-color="#edc967" offset="1"/></linearGradient><linearGradient id="K" gradientUnits="userSpaceOnUse"/></defs></svg>