<svg width="608" height="608" viewBox="0 0 608 608" fill="none" xmlns="http://www.w3.org/2000/svg">
<g filter="url(#filter0_d_34_2)">
<circle cx="304" cy="300" r="300" fill="black"/>
<circle cx="304" cy="300" r="296" stroke="white" stroke-width="8"/>
</g>
<circle cx="304" cy="300" r="279.25" stroke="url(#paint0_linear_34_2)" stroke-width="1.5"/>
<circle cx="304" cy="300" r="149.25" stroke="url(#paint1_linear_34_2)" stroke-width="1.5"/>
<circle cx="304" cy="300" r="100" fill="#53277E"/>
<line x1="304.75" y1="20" x2="304.75" y2="150" stroke="url(#paint2_linear_34_2)" stroke-width="1.5"/>
<line x1="304.75" y1="450" x2="304.75" y2="580" stroke="url(#paint3_linear_34_2)" stroke-width="1.5"/>
<line x1="154" y1="300.75" x2="24" y2="300.75" stroke="url(#paint4_linear_34_2)" stroke-width="1.5"/>
<line x1="454" y1="299.25" x2="584" y2="299.25" stroke="url(#paint5_linear_34_2)" stroke-width="1.5"/>
<path d="M211.549 385.963C211.973 385.577 212.22 385.234 212.29 384.936C212.37 384.647 212.317 384.361 212.132 384.079C211.956 383.788 211.692 383.469 211.34 383.122L210.529 382.292L207.455 385.095C207.189 385.338 206.948 385.548 206.733 385.727C206.536 385.907 206.364 386.045 206.218 386.142L208.565 388.657C208.926 389.033 209.309 389.314 209.716 389.503C210.132 389.683 210.584 389.713 211.071 389.594C211.557 389.475 212.082 389.159 212.643 388.647L213.236 389.297L210.155 391.944L203.148 384.26L203.798 383.667C204.114 383.974 204.394 384.143 204.638 384.173C204.891 384.213 205.154 384.144 205.426 383.968C205.699 383.792 206.017 383.538 206.382 383.205L212.529 377.599C212.746 377.401 212.957 377.218 213.163 377.048C213.379 376.869 213.565 376.717 213.722 376.592C213.56 376.434 213.384 376.26 213.194 376.072C213.004 375.884 212.833 375.716 212.679 375.567L213.492 374.826L220.069 382.038L217.461 384.551L216.868 383.901C217.43 383.389 217.773 382.904 217.898 382.447C218.032 382.001 218.013 381.584 217.842 381.199C217.68 380.823 217.441 380.473 217.126 380.147L216.153 379.139C215.875 378.834 215.609 378.652 215.357 378.593C215.115 378.525 214.853 378.574 214.572 378.741C214.3 378.898 213.967 379.157 213.573 379.516L211.253 381.632L213.477 384.07L214.667 382.822L215.408 383.635L212.142 386.614L211.549 385.963Z" fill="white"/>
<path d="M215.3 396.997L215.859 396.318C216.358 396.573 216.874 396.669 217.408 396.608C217.942 396.547 218.596 396.413 219.372 396.205L223.542 395.106C223.62 393.753 223.683 392.639 223.731 391.763C223.787 390.877 223.823 390.12 223.838 389.493C223.882 389.063 223.927 388.703 223.975 388.415C224.042 388.124 224.119 387.842 224.206 387.568C224.053 387.46 223.91 387.351 223.776 387.24C223.643 387.13 223.505 387.025 223.362 386.925L224.062 386.076L228.292 389.56L227.732 390.239L227.21 389.835C226.851 389.557 226.575 389.442 226.381 389.489C226.195 389.526 226.061 389.657 225.978 389.883C225.906 390.118 225.857 390.388 225.829 390.693C225.779 391.153 225.735 391.721 225.696 392.397C225.657 393.073 225.612 393.788 225.562 394.541L228.564 393.697C229.101 393.569 229.577 393.452 229.993 393.345C230.428 393.237 230.782 393.174 231.055 393.158C230.851 393.007 230.631 392.843 230.396 392.667C230.161 392.491 229.947 392.332 229.753 392.189L230.453 391.34L233.648 393.972L233.089 394.652C232.757 394.447 232.376 394.332 231.947 394.307C231.519 394.282 231.062 394.312 230.578 394.397C230.104 394.49 229.613 394.604 229.105 394.738L225.518 395.696C225.496 396.456 225.469 397.202 225.436 397.935C225.421 398.666 225.402 399.349 225.378 399.986C225.355 400.623 225.331 401.165 225.308 401.613C225.297 401.983 225.28 402.35 225.258 402.712C225.247 403.082 225.224 403.435 225.19 403.77C225.353 403.887 225.496 403.996 225.619 404.098C225.743 404.199 225.876 404.3 226.018 404.4L225.319 405.249L221.259 401.905L221.818 401.226C222.201 401.558 222.5 401.719 222.717 401.707C222.934 401.696 223.084 401.586 223.169 401.379C223.261 401.162 223.313 400.911 223.323 400.626C223.347 400.093 223.362 399.457 223.366 398.718C223.389 397.976 223.429 397.163 223.485 396.276C222.95 396.423 222.41 396.575 221.867 396.731C221.342 396.886 220.803 397.047 220.251 397.214C219.827 397.331 219.425 397.441 219.047 397.544C218.668 397.647 218.279 397.732 217.878 397.799C218.082 397.95 218.296 398.109 218.521 398.277C218.746 398.444 218.955 398.599 219.148 398.742L218.449 399.591L215.3 396.997Z" fill="white"/>
<path d="M239.56 414.511L239.961 413.706C240.319 413.884 240.641 413.925 240.927 413.829C241.213 413.733 241.502 413.557 241.794 413.3C242.091 413.031 242.419 412.732 242.776 412.404L251.321 404.303L252.038 404.66L250.958 416.656C250.941 416.93 250.894 417.294 250.817 417.747C250.746 418.189 250.637 418.544 250.488 418.812C250.703 418.889 250.906 418.976 251.097 419.071C251.306 419.16 251.503 419.243 251.688 419.32L251.197 420.305L246.847 418.139L247.239 417.351C247.662 417.547 247.982 417.594 248.196 417.493C248.428 417.385 248.589 417.197 248.678 416.928C248.779 416.666 248.844 416.385 248.873 416.087L249.058 414.37L244.618 412.293L243.324 413.592C243.133 413.795 242.943 413.984 242.752 414.157C242.562 414.33 242.374 414.497 242.189 414.659C242.416 414.742 242.649 414.843 242.888 414.962C243.144 415.074 243.371 415.172 243.568 415.256L243.069 416.258L239.56 414.511ZM245.422 411.487L249.182 413.359L249.56 409.771C249.613 409.306 249.669 408.85 249.728 408.402C249.792 407.943 249.86 407.508 249.931 407.096L249.913 407.087C249.669 407.338 249.398 407.613 249.101 407.912C248.803 408.21 248.473 408.53 248.109 408.87L245.422 411.487Z" fill="white"/>
<path d="M267.751 416.047C267.906 415.382 267.939 414.745 267.85 414.138C267.76 413.53 267.534 412.995 267.169 412.534C266.809 412.06 266.28 411.711 265.581 411.488C264.874 411.248 264.246 411.253 263.696 411.503C263.147 411.753 262.778 412.156 262.589 412.711C262.422 413.204 262.42 413.668 262.582 414.103C262.748 414.525 263.02 414.948 263.397 415.372C263.787 415.8 264.233 416.247 264.737 416.714C265.148 417.079 265.557 417.471 265.964 417.891C266.37 418.31 266.72 418.753 267.013 419.218C267.31 419.671 267.501 420.165 267.587 420.701C267.676 421.225 267.619 421.789 267.413 422.395C267.173 423.102 266.776 423.672 266.221 424.103C265.666 424.534 264.994 424.792 264.205 424.876C263.429 424.965 262.561 424.846 261.602 424.52C261.059 424.336 260.512 424.059 259.962 423.689C259.424 423.324 258.96 422.906 258.571 422.436L258.396 423.263L257.24 422.871L258.579 418.679L259.488 418.988C259.216 420.12 259.324 421.086 259.813 421.886C260.319 422.677 261.052 423.236 262.012 423.561C262.491 423.724 262.957 423.784 263.408 423.74C263.86 423.696 264.255 423.548 264.594 423.297C264.932 423.046 265.177 422.699 265.327 422.257C265.502 421.74 265.492 421.251 265.297 420.79C265.114 420.334 264.825 419.898 264.431 419.482C264.049 419.071 263.638 418.664 263.198 418.261C262.757 417.858 262.334 417.447 261.927 417.027C261.533 416.612 261.196 416.174 260.916 415.713C260.636 415.252 260.457 414.762 260.38 414.243C260.307 413.711 260.373 413.142 260.579 412.536C260.699 412.182 260.888 411.831 261.148 411.483C261.407 411.134 261.748 410.835 262.171 410.584C262.594 410.333 263.1 410.188 263.691 410.15C264.298 410.102 265 410.214 265.795 410.484C266.275 410.646 266.788 410.898 267.334 411.238C267.893 411.583 268.359 412.015 268.731 412.536L268.926 411.715L270.062 412.1L268.622 416.343L267.751 416.047Z" fill="white"/>
<path d="M285.692 420.259C285.825 419.511 285.861 418.873 285.801 418.345C285.741 417.817 285.551 417.393 285.233 417.073C284.929 416.755 284.461 416.542 283.83 416.432L282.417 416.157L280.408 426.361C280.339 426.715 280.27 427.034 280.201 427.319C280.147 427.594 280.091 427.814 280.031 427.979C280.285 428.001 280.556 428.041 280.844 428.097C281.147 428.142 281.418 428.181 281.656 428.214L281.446 429.294L276.46 428.322L276.628 427.459C277.065 427.517 277.39 427.485 277.604 427.363C277.818 427.242 277.982 427.03 278.095 426.726C278.211 426.409 278.315 426.015 278.407 425.543L280.312 415.767L278.66 415.466C277.861 415.31 277.227 415.465 276.756 415.93C276.285 416.395 275.939 417.191 275.72 418.316L274.797 418.136L275.741 413.919L287.324 416.176L286.615 420.439L285.692 420.259Z" fill="white"/>
<path d="M291.598 430.752L291.645 429.873C292.086 429.87 292.404 429.794 292.599 429.644C292.807 429.495 292.947 429.262 293.017 428.945C293.088 428.629 293.136 428.224 293.163 427.732L293.611 419.424C293.627 419.131 293.648 418.852 293.676 418.586C293.704 418.307 293.731 418.068 293.755 417.869C293.528 417.87 293.281 417.87 293.014 417.869C292.747 417.868 292.506 417.869 292.293 417.87L292.352 416.772C293.165 416.802 293.984 416.84 294.809 416.885C295.636 416.916 296.468 416.961 297.306 417.019C298.557 417.087 299.581 417.289 300.378 417.626C301.175 417.949 301.758 418.401 302.127 418.982C302.51 419.563 302.671 420.28 302.612 421.131C302.597 421.664 302.461 422.191 302.206 422.711C301.952 423.218 301.547 423.664 300.993 424.048C300.438 424.432 299.689 424.705 298.745 424.868C299.003 425.042 299.231 425.275 299.428 425.566C299.626 425.857 299.829 426.182 300.037 426.54L301.154 428.483C301.385 428.896 301.6 429.248 301.798 429.539C301.996 429.83 302.224 430.063 302.481 430.237C302.74 430.398 303.055 430.488 303.428 430.509L303.381 431.387L300.605 431.238C300.274 430.926 299.992 430.597 299.757 430.25C299.536 429.891 299.297 429.491 299.04 429.05L297.783 426.739C297.624 426.463 297.453 426.167 297.27 425.85C297.1 425.534 296.908 425.263 296.693 425.038C296.48 425.026 296.267 425.015 296.054 425.003C295.854 424.993 295.648 424.981 295.435 424.97L295.257 428.265C295.238 428.625 295.213 428.95 295.184 429.243C295.169 429.522 295.144 429.748 295.108 429.92C295.268 429.915 295.435 429.917 295.608 429.926C295.795 429.923 295.976 429.92 296.149 429.916C296.337 429.912 296.497 429.914 296.63 429.921L296.571 431.02L291.598 430.752ZM296.646 424.054C297.379 424.08 298.011 424.001 298.541 423.816C299.073 423.617 299.491 423.299 299.795 422.862C300.099 422.411 300.272 421.819 300.311 421.087C300.34 420.541 300.285 420.077 300.146 419.696C300.006 419.315 299.796 419.003 299.515 418.761C299.235 418.505 298.891 418.32 298.484 418.204C298.09 418.076 297.66 418 297.194 417.975C296.768 417.952 296.451 418.015 296.243 418.164C296.048 418.313 295.915 418.54 295.845 418.843C295.776 419.147 295.728 419.538 295.702 420.017L295.491 423.931C295.69 423.956 295.875 423.986 296.047 424.022C296.232 424.045 296.432 424.056 296.646 424.054Z" fill="white"/>
<path d="M313.853 417.733C313.428 417.774 313.121 417.887 312.933 418.073C312.744 418.246 312.633 418.494 312.601 418.817C312.568 419.126 312.568 419.534 312.601 420.039L313.139 428.242C313.162 428.601 313.177 428.927 313.183 429.221C313.201 429.5 313.203 429.727 313.187 429.902C313.412 429.861 313.657 429.831 313.923 429.814C314.202 429.782 314.44 429.753 314.639 429.727L314.711 430.825L309.801 431.146L309.744 430.268C310.181 430.213 310.488 430.099 310.664 429.927C310.853 429.755 310.963 429.507 310.996 429.184C311.028 428.861 311.028 428.454 310.996 427.961L310.452 419.659C310.432 419.366 310.421 419.087 310.417 418.82C310.412 418.539 310.409 418.299 310.409 418.099C310.184 418.127 309.939 418.156 309.674 418.187C309.408 418.218 309.17 418.247 308.958 418.274L308.886 417.176L313.795 416.854L313.853 417.733Z" fill="white"/>
<path d="M329.029 419.025C328.841 418.368 328.56 417.796 328.186 417.308C327.812 416.821 327.354 416.464 326.811 416.238C326.266 415.999 325.634 415.952 324.915 416.097C324.18 416.231 323.634 416.542 323.275 417.027C322.917 417.513 322.791 418.044 322.896 418.622C322.99 419.133 323.213 419.54 323.566 419.841C323.917 420.129 324.361 420.367 324.896 420.553C325.445 420.737 326.053 420.911 326.72 421.074C327.256 421.192 327.805 421.336 328.364 421.505C328.924 421.674 329.444 421.89 329.926 422.154C330.406 422.405 330.814 422.744 331.149 423.171C331.482 423.584 331.707 424.106 331.822 424.735C331.956 425.47 331.886 426.16 331.611 426.807C331.336 427.454 330.875 428.006 330.226 428.463C329.591 428.918 328.775 429.237 327.779 429.419C327.215 429.522 326.602 429.546 325.941 429.491C325.294 429.433 324.685 429.294 324.116 429.073L324.366 429.881L323.166 430.1L322.295 425.787L323.24 425.614C323.553 426.736 324.118 427.527 324.935 427.988C325.761 428.433 326.673 428.564 327.67 428.382C328.169 428.291 328.604 428.116 328.977 427.858C329.35 427.6 329.624 427.279 329.797 426.895C329.971 426.511 330.016 426.089 329.932 425.63C329.834 425.092 329.587 424.67 329.192 424.363C328.81 424.053 328.346 423.812 327.799 423.641C327.266 423.468 326.709 423.312 326.128 423.174C325.547 423.037 324.977 422.883 324.417 422.715C323.871 422.544 323.363 422.325 322.894 422.058C322.425 421.791 322.031 421.45 321.711 421.034C321.388 420.605 321.17 420.076 321.054 419.446C320.987 419.079 320.982 418.68 321.039 418.25C321.096 417.819 321.248 417.391 321.495 416.967C321.743 416.542 322.115 416.169 322.612 415.847C323.12 415.511 323.787 415.267 324.613 415.115C325.112 415.024 325.682 414.994 326.325 415.026C326.981 415.055 327.598 415.206 328.177 415.48L327.947 414.668L329.128 414.452L329.934 418.859L329.029 419.025Z" fill="white"/>
<path d="M342.021 429.463L341.295 429.199C341.383 428.978 341.454 428.679 341.509 428.301C341.576 427.919 341.6 427.509 341.581 427.069C341.578 426.639 341.501 426.238 341.349 425.866C341.271 425.931 341.195 425.981 341.122 426.016C341.062 426.048 340.994 426.075 340.917 426.098C340.649 426.178 340.386 426.159 340.128 426.04C339.867 425.909 339.688 425.684 339.594 425.365C339.483 424.994 339.505 424.668 339.658 424.386C339.819 424.088 340.06 423.891 340.379 423.796C340.878 423.648 341.302 423.717 341.651 424.003C342.009 424.272 342.266 424.668 342.421 425.192C342.524 425.537 342.58 425.959 342.588 426.457C342.61 426.951 342.572 427.456 342.475 427.972C342.382 428.501 342.23 428.998 342.021 429.463Z" fill="white"/>
<path d="M359.718 419.106L359.299 418.31C359.653 418.124 359.874 417.886 359.963 417.598C360.053 417.31 360.078 416.972 360.04 416.586C359.996 416.187 359.945 415.747 359.887 415.265L358.305 403.597L359.012 403.224L368.118 411.108C368.33 411.282 368.598 411.533 368.921 411.86C369.238 412.175 369.462 412.472 369.593 412.749C369.782 412.62 369.97 412.506 370.159 412.406C370.353 412.289 370.535 412.178 370.706 412.072L371.219 413.046L366.92 415.311L366.509 414.533C366.916 414.304 367.141 414.072 367.183 413.839C367.232 413.587 367.173 413.347 367.007 413.118C366.853 412.882 366.663 412.666 366.438 412.468L365.152 411.314L360.873 413.705L361.171 415.515C361.225 415.788 361.266 416.052 361.296 416.308C361.325 416.564 361.351 416.814 361.374 417.058C361.574 416.923 361.792 416.793 362.028 416.668C362.27 416.526 362.482 416.399 362.664 416.288L363.186 417.279L359.718 419.106ZM360.688 412.582L364.404 410.624L361.713 408.221C361.367 407.906 361.029 407.594 360.7 407.285C360.366 406.964 360.052 406.655 359.759 406.357L359.741 406.366C359.802 406.711 359.867 407.091 359.936 407.507C360.004 407.923 360.071 408.378 360.135 408.872L360.688 412.582Z" fill="white"/>
<path d="M376.61 409.627L376.096 408.913C376.438 408.634 376.638 408.375 376.696 408.136C376.765 407.89 376.728 407.621 376.584 407.33C376.44 407.039 376.225 406.693 375.937 406.293L371.078 399.539C370.907 399.301 370.749 399.069 370.604 398.845C370.451 398.61 370.322 398.407 370.216 398.237C370.04 398.38 369.847 398.535 369.639 398.702C369.43 398.868 369.243 399.019 369.077 399.155L368.435 398.262C369.088 397.776 369.749 397.292 370.42 396.809C371.084 396.316 371.76 395.829 372.45 395.349C373.467 394.617 374.392 394.133 375.223 393.896C376.047 393.649 376.785 393.635 377.437 393.856C378.099 394.07 378.674 394.526 379.162 395.227C379.484 395.652 379.709 396.147 379.836 396.713C379.956 397.267 379.92 397.868 379.728 398.515C379.537 399.162 379.124 399.844 378.491 400.563C378.801 400.537 379.124 400.575 379.461 400.678C379.798 400.781 380.159 400.907 380.546 401.056L382.634 401.87C383.073 402.046 383.461 402.186 383.798 402.289C384.135 402.392 384.458 402.43 384.768 402.404C385.07 402.367 385.373 402.24 385.676 402.022L386.189 402.737L383.933 404.36C383.48 404.324 383.053 404.245 382.653 404.122C382.256 403.981 381.819 403.819 381.343 403.636L378.914 402.624C378.618 402.508 378.299 402.385 377.957 402.252C377.627 402.112 377.307 402.022 376.999 401.981C376.825 402.106 376.652 402.23 376.479 402.355C376.317 402.472 376.149 402.592 375.976 402.717L377.903 405.396C378.113 405.688 378.298 405.957 378.459 406.203C378.622 406.43 378.744 406.622 378.823 406.779C378.946 406.674 379.077 406.572 379.218 406.47C379.361 406.35 379.5 406.235 379.633 406.123C379.776 406.003 379.902 405.904 380.011 405.826L380.653 406.719L376.61 409.627ZM376.345 401.244C376.933 400.805 377.375 400.347 377.673 399.87C377.963 399.383 378.089 398.873 378.051 398.341C378.006 397.799 377.77 397.23 377.341 396.635C377.022 396.191 376.689 395.864 376.341 395.655C375.993 395.445 375.634 395.334 375.263 395.321C374.885 395.298 374.501 395.369 374.111 395.534C373.724 395.681 373.341 395.891 372.962 396.164C372.615 396.413 372.408 396.661 372.339 396.907C372.281 397.146 372.32 397.406 372.455 397.686C372.591 397.966 372.799 398.301 373.079 398.69L375.369 401.873C375.539 401.767 375.702 401.674 375.858 401.594C376.017 401.496 376.18 401.379 376.345 401.244Z" fill="white"/>
<path d="M390.211 386.062C389.695 385.614 389.147 385.288 388.568 385.083C387.989 384.879 387.41 384.83 386.832 384.937C386.244 385.034 385.689 385.34 385.166 385.854C384.624 386.368 384.335 386.926 384.3 387.528C384.265 388.131 384.449 388.645 384.852 389.071C385.21 389.449 385.619 389.667 386.079 389.727C386.531 389.777 387.032 389.734 387.582 389.598C388.143 389.453 388.747 389.266 389.394 389.039C389.909 388.845 390.447 388.666 391.007 388.502C391.568 388.338 392.123 388.236 392.671 388.194C393.21 388.142 393.737 388.204 394.251 388.378C394.755 388.543 395.228 388.857 395.668 389.322C396.181 389.864 396.5 390.481 396.622 391.173C396.745 391.865 396.66 392.579 396.366 393.316C396.082 394.044 395.572 394.757 394.837 395.454C394.421 395.848 393.921 396.202 393.337 396.516C392.762 396.821 392.177 397.037 391.579 397.162L392.229 397.703L391.344 398.542L388.26 395.403L388.957 394.742C389.832 395.511 390.737 395.866 391.672 395.806C392.608 395.728 393.444 395.34 394.18 394.643C394.548 394.295 394.817 393.911 394.989 393.491C395.161 393.071 395.215 392.653 395.15 392.236C395.086 391.82 394.894 391.442 394.573 391.103C394.197 390.706 393.76 390.487 393.261 390.445C392.772 390.394 392.252 390.446 391.7 390.601C391.159 390.747 390.607 390.92 390.045 391.122C389.483 391.324 388.922 391.506 388.361 391.67C387.81 391.825 387.265 391.919 386.726 391.951C386.188 391.984 385.671 391.913 385.176 391.74C384.672 391.556 384.199 391.232 383.759 390.767C383.502 390.496 383.28 390.165 383.093 389.773C382.905 389.381 382.8 388.94 382.775 388.449C382.751 387.958 382.859 387.442 383.1 386.902C383.342 386.342 383.767 385.774 384.377 385.196C384.745 384.848 385.207 384.511 385.763 384.187C386.328 383.853 386.928 383.643 387.562 383.556L386.927 383.002L387.798 382.176L390.879 385.429L390.211 386.062Z" fill="white"/>
<path d="M404.311 385.51C404.076 385.783 403.776 385.93 403.408 385.948C403.05 385.957 402.724 385.836 402.43 385.584C402.146 385.341 401.986 385.037 401.948 384.671C401.909 384.286 401.998 383.967 402.215 383.714C402.449 383.441 402.751 383.304 403.12 383.304C403.478 383.295 403.799 383.412 404.083 383.655C404.376 383.907 404.542 384.216 404.58 384.582C404.626 384.937 404.536 385.247 404.311 385.51Z" fill="white"/>
<line x1="498.581" y1="429" x2="498.581" y2="374" stroke="white"/>
<rect x="0.694117" width="17.0085" height="17.0085" transform="matrix(0.694117 -0.719862 0.694117 0.719862 486.212 402.488)" stroke="white"/>
<line y1="-0.5" x2="10.8051" y2="-0.5" transform="matrix(0.694117 -0.719862 0.694117 0.719862 498.021 390.936)" stroke="white"/>
<line y1="-0.5" x2="10.8051" y2="-0.5" transform="matrix(0.694117 0.719862 -0.694117 0.719862 491.657 383.158)" stroke="white"/>
<line y1="-0.5" x2="10.8051" y2="-0.5" transform="matrix(0.694117 0.719862 -0.694117 0.719862 498.728 414.692)" stroke="white"/>
<line y1="-0.5" x2="10.8051" y2="-0.5" transform="matrix(0.694117 -0.719862 0.694117 0.719862 490.95 422.47)" stroke="white"/>
<line x1="112.5" y1="374" x2="112.5" y2="429" stroke="white"/>
<line x1="94" y1="402.5" x2="144" y2="402.5" stroke="white"/>
<line x1="104" y1="386.5" x2="138" y2="386.5" stroke="white"/>
<path d="M103.5 390L108.263 398.25H98.7369L103.5 390Z" fill="white"/>
<circle cx="122.5" cy="414.5" r="7" stroke="white"/>
<circle cx="122.5" cy="414.5" r="2.5" fill="white"/>
<line x1="214" y1="529.009" x2="214" y2="474" stroke="white"/>
<line x1="186" y1="500.505" x2="241.01" y2="500.505" stroke="white"/>
<rect x="214.5" y="501.505" width="14" height="14" stroke="white"/>
<rect x="199.5" y="486.505" width="14" height="14" stroke="white"/>
<rect x="214.5" y="491.505" width="9" height="9" stroke="white"/>
<rect x="204.5" y="500.505" width="9" height="9" stroke="white"/>
<rect x="-0.5" y="0.5" width="14" height="34" transform="matrix(-1 0 0 1 159 132)" stroke="white" stroke-dasharray="2 2"/>
<rect x="140.5" y="122.5" width="24" height="54" stroke="white" stroke-dasharray="2 2"/>
<rect x="143.5" y="127.5" width="19" height="44" stroke="white" stroke-dasharray="2 2"/>
<rect x="147.5" y="136.5" width="9" height="24" stroke="white" stroke-dasharray="2 2"/>
<rect x="150.5" y="139.5" width="4" height="19" stroke="white" stroke-dasharray="2 2"/>
<circle cx="348" cy="517" r="20.5" stroke="white"/>
<circle cx="348.5" cy="509.5" r="7.5" fill="white"/>
<path d="M331 540L347 545.5L366 540" stroke="white"/>
<path d="M329 497.5L350 490L367 497.5" stroke="white"/>
<line x1="131" y1="454.5" x2="195" y2="454.5" stroke="white"/>
<line x1="137.728" y1="477.581" x2="191.41" y2="442.734" stroke="white"/>
<circle cx="176" cy="466" r="6" fill="white"/>
<circle cx="146" cy="445" r="5.5" stroke="white"/>
<circle cx="344" cy="86.0388" r="20.5" stroke="white"/>
<circle cx="341.5" cy="97.5388" r="7" stroke="white"/>
<circle cx="344" cy="84.0388" r="4" fill="white"/>
<circle cx="344.5" cy="97.5388" r="2.5" fill="white"/>
<line x1="316" y1="84.5388" x2="374" y2="84.5388" stroke="white"/>
<line x1="344" y1="115.078" x2="344" y2="57" stroke="white"/>
<path d="M521.849 251.151C524.494 253.795 526.384 257.098 527.325 260.717C528.265 264.336 528.223 268.141 527.201 271.739C526.179 275.336 524.215 278.595 521.512 281.179C518.809 283.764 515.464 285.579 511.825 286.438C508.185 287.297 504.382 287.169 500.809 286.067C497.235 284.964 494.021 282.927 491.498 280.167C488.976 277.406 487.236 274.022 486.458 270.364C485.681 266.706 485.895 262.907 487.078 259.359L487.555 259.518C486.4 262.981 486.192 266.689 486.95 270.26C487.709 273.83 489.407 277.133 491.87 279.828C494.332 282.522 497.469 284.51 500.957 285.586C504.445 286.662 508.157 286.787 511.709 285.949C515.262 285.11 518.526 283.338 521.164 280.816C523.803 278.293 525.72 275.112 526.717 271.601C527.714 268.09 527.756 264.376 526.838 260.843C525.92 257.311 524.075 254.087 521.494 251.506L521.849 251.151Z" fill="white"/>
<path d="M514.522 258.223C514.273 258.343 514.169 258.642 514.289 258.891L516.25 262.941C516.37 263.189 516.669 263.293 516.918 263.173C517.167 263.053 517.271 262.754 517.15 262.505L515.407 258.905L519.008 257.162C519.256 257.042 519.36 256.743 519.24 256.494C519.12 256.246 518.821 256.142 518.572 256.262L514.522 258.223ZM534.444 264.994L514.904 258.2L514.575 259.145L534.116 265.938L534.444 264.994Z" fill="white"/>
<circle cx="490" cy="278" r="4.5" stroke="white"/>
<circle cx="523.5" cy="277.5" r="7" stroke="white"/>
<circle cx="499.5" cy="276.5" r="2" stroke="white"/>
<circle cx="499" cy="285" r="3.5" stroke="white"/>
<rect x="183.5" y="87.5" width="41" height="41" stroke="white"/>
<path d="M222 87L204 108.538L222 129" stroke="white"/>
<path d="M204 87L220 108L204 129" stroke="white"/>
<line x1="192.5" y1="87" x2="192.5" y2="129" stroke="white" stroke-dasharray="2 2"/>
<line x1="197.5" y1="89" x2="197.5" y2="129" stroke="white" stroke-dasharray="2 2"/>
<circle cx="212" cy="108" r="4" fill="white"/>
<rect x="445" y="450" width="24" height="35" fill="white"/>
<path d="M439 428L457 450.5L479 428" stroke="white"/>
<circle cx="457" cy="432" r="4" fill="white"/>
<path d="M448.88 148.25L467.5 116L486.12 148.25H448.88Z" stroke="white"/>
<line x1="436" y1="148.5" x2="501" y2="148.5" stroke="white"/>
<line x1="461.5" y1="150" x2="461.5" y2="170" stroke="white"/>
<line x1="471.5" y1="177" x2="471.5" y2="149" stroke="white"/>
<circle cx="461.5" cy="170.5" r="5.5" fill="white"/>
<path d="M471.5 174L473.408 179.873L479.584 179.873L474.588 183.503L476.496 189.377L471.5 185.747L466.504 189.377L468.412 183.503L463.416 179.873L469.592 179.873L471.5 174Z" fill="white"/>
<rect x="112.5" y="205.5" width="21" height="21" stroke="white"/>
<rect x="90.5" y="184.5" width="21" height="21" stroke="white"/>
<path d="M124.494 188.925C124.453 188.652 124.198 188.464 123.925 188.506L119.476 189.18C119.203 189.221 119.015 189.476 119.056 189.749C119.098 190.022 119.353 190.21 119.626 190.168L123.581 189.569L124.18 193.524C124.221 193.797 124.476 193.985 124.749 193.944C125.022 193.902 125.21 193.647 125.168 193.374L124.494 188.925ZM96.4025 227.297L124.403 189.297L123.597 188.703L95.5975 226.703L96.4025 227.297Z" fill="white"/>
<circle cx="101" cy="195" r="6" fill="white"/>
<circle cx="123" cy="216" r="5.5" stroke="white"/>
<path d="M270.125 546.004C270.125 546.694 270.685 547.254 271.375 547.254C272.065 547.254 272.625 546.694 272.625 546.004H270.125ZM272.625 546.004V508.982H270.125V546.004H272.625Z" fill="white"/>
<line x1="270" y1="508" x2="286" y2="508" stroke="white" stroke-width="2"/>
<rect x="270" y="499" width="8" height="8" fill="white"/>
<line x1="261" y1="500" x2="273" y2="500" stroke="white" stroke-width="2"/>
<path d="M271.835 492.989L273.5 491.643L275.165 492.989V496.011L273.5 497.357L271.835 496.011V492.989Z" stroke="white"/>
<rect x="395.5" y="475.5" width="24" height="49" rx="1.5" stroke="white"/>
<circle cx="407.5" cy="492.5" r="7" stroke="white" stroke-dasharray="2 2"/>
<line x1="395" y1="512.5" x2="420" y2="512.5" stroke="white"/>
<circle cx="403.5" cy="517.5" r="2.5" fill="white"/>
<circle cx="411.5" cy="517.5" r="2.5" fill="white"/>
<path d="M76.3684 291.395C85.7187 288.342 89.1053 284.842 89.1053 274.943C89.1053 270.852 90.9078 270.167 94.4123 270.167C102.131 270.167 109.178 262.925 112.456 256.368" stroke="white" stroke-linecap="round"/>
<path d="M90.1667 271.289C83.9851 268.662 75.307 262.714 75.307 255.368" stroke="white" stroke-linecap="round"/>
<path d="M97.5965 269.167C96.7743 264.953 96.5246 263.198 98.422 259.614C99.285 257.984 100.038 257.4 98.422 255.604C96.8644 253.874 94.1016 249.906 92.2895 249" stroke="white" stroke-linecap="round"/>
<path d="M89.1053 272.351C82.2296 277.351 77.8041 277.314 70 273.412" stroke="white" stroke-linecap="round"/>
<path d="M90.1052 271.351C98.4814 282.072 101.867 271.351 111.333 271.351" stroke="white" stroke-linecap="round"/>
<path d="M98.3684 269.453C102.378 269.453 106.229 269.661 110.132 268.353C111.969 267.738 113.068 266.296 114.993 266.154C117.2 265.991 117.889 262.436 119.368 266.154" stroke="white" stroke-linecap="round"/>
<path d="M90.1666 272.351C89.7749 270.343 89.8874 259.474 88.0438 258.553" stroke="white" stroke-linecap="round"/>
<line x1="494.5" y1="239" x2="494.5" y2="195" stroke="white"/>
<path d="M489 202L501 215L489 232" stroke="white"/>
<path d="M510 215.5L505 212.613V218.387L510 215.5ZM483 216H505.5V215H483V216Z" fill="white"/>
<path d="M294 75C294 81.6304 291.366 87.9893 286.678 92.6777C281.989 97.3661 275.63 100 269 100C262.37 100 256.011 97.3661 251.322 92.6777C246.634 87.9893 244 81.6304 244 75H244.495C244.495 81.4992 247.077 87.7321 251.672 92.3277C256.268 96.9233 262.501 99.5051 269 99.5051C275.499 99.5051 281.732 96.9233 286.328 92.3277C290.923 87.7321 293.505 81.4992 293.505 75H294Z" fill="white"/>
<line x1="269.5" y1="66" x2="269.5" y2="116" stroke="white"/>
<line x1="269.856" y1="104.627" x2="276.037" y2="114.913" stroke="white"/>
<line x1="268.287" y1="76.5904" x2="288.287" y2="90.5904" stroke="white"/>
<path d="M248 87.3896L270.82 77.3575L251.5 93.4518" stroke="white"/>
<line x1="409.5" y1="138.036" x2="409.5" y2="83" stroke="white"/>
<line x1="388" y1="96.5" x2="433" y2="96.5" stroke="white"/>
<line x1="388" y1="109.5" x2="433" y2="109.5" stroke="white"/>
<line x1="388" y1="122.5" x2="433" y2="122.5" stroke="white"/>
<circle cx="421" cy="87" r="4" fill="white"/>
<circle cx="421" cy="115" r="4" fill="white"/>
<circle cx="421" cy="131" r="4" fill="white"/>
<path d="M399 126L404.196 135H393.804L399 126Z" fill="white"/>
<circle cx="91" cy="335" r="20.5" stroke="white" stroke-dasharray="2 2"/>
<circle cx="93" cy="335" r="15.5" stroke="white"/>
<circle cx="96" cy="335" r="10.5" stroke="white" stroke-dasharray="2 2"/>
<circle cx="99" cy="335" r="5.5" stroke="white"/>
<line x1="112" y1="335.5" x2="70" y2="335.5" stroke="white"/>
<g filter="url(#filter1_f_34_2)">
<line x1="513.5" y1="347" x2="513.5" y2="326" stroke="white"/>
</g>
<rect x="506.5" y="313.5" width="14" height="43" stroke="white"/>
<g filter="url(#filter2_f_34_2)">
<path d="M509 330L513 335L518 330" stroke="white"/>
</g>
<g filter="url(#filter3_f_34_2)">
<path d="M513.5 319L515.665 321.25V325.75L513.5 328L511.335 325.75V321.25L513.5 319Z" fill="white"/>
</g>
<defs>
<filter id="filter0_d_34_2" x="0" y="0" width="608" height="608" filterUnits="userSpaceOnUse" color-interpolation-filters="sRGB">
<feFlood flood-opacity="0" result="BackgroundImageFix"/>
<feColorMatrix in="SourceAlpha" type="matrix" values="0 0 0 0 0 0 0 0 0 0 0 0 0 0 0 0 0 0 127 0" result="hardAlpha"/>
<feOffset dy="4"/>
<feGaussianBlur stdDeviation="2"/>
<feComposite in2="hardAlpha" operator="out"/>
<feColorMatrix type="matrix" values="0 0 0 0 0 0 0 0 0 0 0 0 0 0 0 0 0 0 0.25 0"/>
<feBlend mode="normal" in2="BackgroundImageFix" result="effect1_dropShadow_34_2"/>
<feBlend mode="normal" in="SourceGraphic" in2="effect1_dropShadow_34_2" result="shape"/>
</filter>
<filter id="filter1_f_34_2" x="509" y="322" width="9" height="29" filterUnits="userSpaceOnUse" color-interpolation-filters="sRGB">
<feFlood flood-opacity="0" result="BackgroundImageFix"/>
<feBlend mode="normal" in="SourceGraphic" in2="BackgroundImageFix" result="shape"/>
<feGaussianBlur stdDeviation="2" result="effect1_foregroundBlur_34_2"/>
</filter>
<filter id="filter2_f_34_2" x="504.61" y="325.646" width="17.744" height="14.1021" filterUnits="userSpaceOnUse" color-interpolation-filters="sRGB">
<feFlood flood-opacity="0" result="BackgroundImageFix"/>
<feBlend mode="normal" in="SourceGraphic" in2="BackgroundImageFix" result="shape"/>
<feGaussianBlur stdDeviation="2" result="effect1_foregroundBlur_34_2"/>
</filter>
<filter id="filter3_f_34_2" x="507.335" y="315" width="12.3301" height="17" filterUnits="userSpaceOnUse" color-interpolation-filters="sRGB">
<feFlood flood-opacity="0" result="BackgroundImageFix"/>
<feBlend mode="normal" in="SourceGraphic" in2="BackgroundImageFix" result="shape"/>
<feGaussianBlur stdDeviation="2" result="effect1_foregroundBlur_34_2"/>
</filter>
<linearGradient id="paint0_linear_34_2" x1="304" y1="20" x2="304" y2="580" gradientUnits="userSpaceOnUse">
<stop stop-color="#AE8625"/>
<stop offset="0.380208" stop-color="#F7EF8A"/>
<stop offset="0.776042" stop-color="#D2AC47"/>
<stop offset="1" stop-color="#EDC967"/>
</linearGradient>
<linearGradient id="paint1_linear_34_2" x1="304" y1="150" x2="304" y2="450" gradientUnits="userSpaceOnUse">
<stop stop-color="#AE8625"/>
<stop offset="0.427083" stop-color="#F7EF8A"/>
<stop offset="0.822917" stop-color="#D2AC47"/>
<stop offset="1" stop-color="#EDC967"/>
</linearGradient>
<linearGradient id="paint2_linear_34_2" x1="304" y1="85" x2="303" y2="85" gradientUnits="userSpaceOnUse">
<stop stop-color="#AE8625"/>
<stop offset="0.390625" stop-color="#F7EF8A"/>
<stop offset="0.78125" stop-color="#D2AC47"/>
<stop offset="1" stop-color="#EDC967"/>
</linearGradient>
<linearGradient id="paint3_linear_34_2" x1="304" y1="515" x2="303" y2="515" gradientUnits="userSpaceOnUse">
<stop stop-color="#AE8625"/>
<stop offset="0.432292" stop-color="#F7EF8A"/>
<stop offset="0.859375" stop-color="#D2AC47"/>
<stop offset="1" stop-color="#EDC967"/>
</linearGradient>
<linearGradient id="paint4_linear_34_2" x1="89" y1="300" x2="89" y2="299" gradientUnits="userSpaceOnUse">
<stop stop-color="#AE8625"/>
<stop offset="0.421875" stop-color="#F7EF8A"/>
<stop offset="0.822917" stop-color="#D2AC47"/>
<stop offset="1" stop-color="#EDC967"/>
</linearGradient>
<linearGradient id="paint5_linear_34_2" x1="519" y1="300" x2="519" y2="301" gradientUnits="userSpaceOnUse">
<stop stop-color="#AE8625"/>
<stop offset="0.453125" stop-color="#F7EF8A"/>
<stop offset="0.817708" stop-color="#D2AC47"/>
<stop offset="1" stop-color="#EDC967"/>
</linearGradient>
</defs>
</svg>
