<svg width="608" height="608" viewBox="0 0 608 608" fill="none" xmlns="http://www.w3.org/2000/svg">
  <g filter="url(#a)">
    <circle cx="304" cy="300" r="300" fill="#000"/>
    <circle cx="304" cy="300" r="296" stroke="#fff" stroke-width="8"/>
  </g>
  <circle cx="304" cy="300" r="279.25" stroke="url(#b)" stroke-width="1.5"/>
  <circle cx="304" cy="300" r="149.25" stroke="url(#c)" stroke-width="1.5"/>
  <circle cx="304" cy="300" r="100" fill="#53277E"/>
  <path stroke="url(#d)" stroke-width="1.5" d="M304.75 20v130"/>
  <path stroke="url(#e)" stroke-width="1.5" d="M304.75 450v130"/>
  <path stroke="url(#f)" stroke-width="1.5" d="M154 300.75H24"/>
  <path stroke="url(#g)" stroke-width="1.5" d="M454 299.25h130"/>
  <path d="M211.549 385.963c.424-.386.671-.729.741-1.027.08-.289.027-.575-.158-.857-.176-.291-.44-.61-.792-.957l-.811-.83-3.074 2.803a20.99 20.99 0 0 1-.722.632c-.197.18-.369.318-.515.415l2.347 2.515a3.85 3.85 0 0 0 1.151.846c.416.18.868.21 1.355.091.486-.119 1.011-.435 1.572-.947l.593.65-3.081 2.647-7.007-7.684.65-.593c.316.307.596.476.84.506.253.04.516-.029.788-.205.273-.176.591-.43.956-.763l6.147-5.606c.217-.198.428-.381.634-.551.216-.179.402-.331.559-.456-.162-.158-.338-.332-.528-.52s-.361-.356-.515-.505l.813-.741 6.577 7.212-2.608 2.513-.593-.65c.562-.512.905-.997 1.03-1.454.134-.446.115-.863-.056-1.248a3.518 3.518 0 0 0-.716-1.052l-.973-1.008c-.278-.305-.544-.487-.796-.546-.242-.068-.504-.019-.785.148-.272.157-.605.416-.999.775l-2.32 2.116 2.224 2.438 1.19-1.248.741.813-3.266 2.979-.593-.651Zm3.751 11.034.559-.679a2.67 2.67 0 0 0 1.549.29c.534-.061 1.188-.195 1.964-.403l4.17-1.099c.078-1.353.141-2.467.189-3.343.056-.886.092-1.643.107-2.27.044-.43.089-.79.137-1.078.067-.291.144-.573.231-.847a7.01 7.01 0 0 1-.43-.328 6.44 6.44 0 0 0-.414-.315l.7-.849 4.23 3.484-.56.679-.522-.404c-.359-.278-.635-.393-.829-.346-.186.037-.32.168-.403.394a4.04 4.04 0 0 0-.149.81c-.05.46-.094 1.028-.133 1.704-.039.676-.084 1.391-.134 2.144l3.002-.844a84.116 84.116 0 0 0 1.429-.352 6.12 6.12 0 0 1 1.062-.187l-.659-.491c-.235-.176-.449-.335-.643-.478l.7-.849 3.195 2.632-.559.68a2.404 2.404 0 0 0-1.142-.345 5.927 5.927 0 0 0-1.369.09c-.474.093-.965.207-1.473.341l-3.587.958c-.022.76-.049 1.506-.082 2.239a120.28 120.28 0 0 1-.128 3.678c-.011.37-.028.737-.05 1.099-.011.37-.034.723-.068 1.058.163.117.306.226.429.328.124.101.257.202.399.302l-.699.849-4.06-3.344.559-.679c.383.332.682.493.899.481a.484.484 0 0 0 .452-.328c.092-.217.144-.468.154-.753.024-.533.039-1.169.043-1.908a76.77 76.77 0 0 1 .119-2.442c-.535.147-1.075.299-1.618.455-.525.155-1.064.316-1.616.483l-1.204.33c-.379.103-.768.188-1.169.255l.643.478.627.465-.699.849-3.149-2.594Zm24.26 17.514.401-.805c.358.178.68.219.966.123.286-.096.575-.272.867-.529a187 187 0 0 0 .982-.896l8.545-8.101.717.357-1.08 11.996c-.017.274-.064.638-.141 1.091-.071.442-.18.797-.329 1.065.215.077.418.164.609.259l.591.249-.491.985-4.35-2.166.392-.788c.423.196.743.243.957.142a.901.901 0 0 0 .482-.565c.101-.262.166-.543.195-.841l.185-1.717-4.44-2.077-1.294 1.299c-.191.203-.381.392-.572.565-.19.173-.378.34-.563.502.227.083.46.184.699.303.256.112.483.21.68.294l-.499 1.002-3.509-1.747Zm5.862-3.024 3.76 1.872.378-3.588a41.167 41.167 0 0 1 .371-2.675l-.018-.009c-.244.251-.515.526-.812.825-.298.298-.628.618-.992.958l-2.687 2.617Zm22.329 4.56a5.102 5.102 0 0 0 .099-1.909 3.317 3.317 0 0 0-.681-1.604c-.36-.474-.889-.823-1.588-1.046-.707-.24-1.335-.235-1.885.015-.549.25-.918.653-1.107 1.208-.167.493-.169.957-.007 1.392.166.422.438.845.815 1.269.39.428.836.875 1.34 1.342.411.365.82.757 1.227 1.177a8.16 8.16 0 0 1 1.049 1.327c.297.453.488.947.574 1.483.089.524.032 1.088-.174 1.694-.24.707-.637 1.277-1.192 1.708-.555.431-1.227.689-2.016.773-.776.089-1.644-.03-2.603-.356a6.944 6.944 0 0 1-1.64-.831 6.605 6.605 0 0 1-1.391-1.253l-.175.827-1.156-.392 1.339-4.192.909.309c-.272 1.132-.164 2.098.325 2.898.506.791 1.239 1.35 2.199 1.675.479.163.945.223 1.396.179a2.332 2.332 0 0 0 1.186-.443c.338-.251.583-.598.733-1.04.175-.517.165-1.006-.03-1.467a4.173 4.173 0 0 0-.866-1.308 21.59 21.59 0 0 0-1.233-1.221 29.16 29.16 0 0 1-1.271-1.234 7.759 7.759 0 0 1-1.011-1.314 3.914 3.914 0 0 1-.536-1.47c-.073-.532-.007-1.101.199-1.707.12-.354.309-.705.569-1.053a3.43 3.43 0 0 1 1.023-.899c.423-.251.929-.396 1.52-.434.607-.048 1.309.064 2.104.334.48.162.993.414 1.539.754a4.779 4.779 0 0 1 1.397 1.298l.195-.821 1.136.385-1.44 4.243-.871-.296Zm17.941 4.212c.133-.748.169-1.386.109-1.914-.06-.528-.25-.952-.568-1.272-.304-.318-.772-.531-1.403-.641l-1.413-.275-2.009 10.204c-.069.354-.138.673-.207.958-.054.275-.11.495-.17.66.254.022.525.062.813.118.303.045.574.084.812.117l-.21 1.08-4.986-.972.168-.863c.437.058.762.026.976-.096.214-.121.378-.333.491-.637.116-.317.22-.711.312-1.183l1.905-9.776-1.652-.301c-.799-.156-1.433-.001-1.904.464-.471.465-.817 1.261-1.036 2.386l-.923-.18.944-4.217 11.583 2.257-.709 4.263-.923-.18Zm5.906 10.493.047-.879c.441-.003.759-.079.954-.229.208-.149.348-.382.418-.699.071-.316.119-.721.146-1.213l.448-8.308c.016-.293.037-.572.065-.838.028-.279.055-.518.079-.717h-.741c-.267-.001-.508 0-.721.001l.059-1.098c.813.03 1.632.068 2.457.113a79.04 79.04 0 0 1 2.497.134c1.251.068 2.275.27 3.072.607.797.323 1.38.775 1.749 1.356.383.581.544 1.298.485 2.149a3.806 3.806 0 0 1-.406 1.58c-.254.507-.659.953-1.213 1.337-.555.384-1.304.657-2.248.82.258.174.486.407.683.698.198.291.401.616.609.974l1.117 1.943c.231.413.446.765.644 1.056.198.291.426.524.683.698.259.161.574.251.947.272l-.047.878-2.776-.149a5.924 5.924 0 0 1-.848-.988 58.26 58.26 0 0 1-.717-1.2l-1.257-2.311-.513-.889a3.712 3.712 0 0 0-.577-.812l-.639-.035-.619-.033-.178 3.295c-.019.36-.044.685-.073.978a4.66 4.66 0 0 1-.076.677c.16-.005.327-.003.5.006l.541-.01c.188-.004.348-.002.481.005l-.059 1.099-4.973-.268Zm5.048-6.698c.733.026 1.365-.053 1.895-.238.532-.199.95-.517 1.254-.954.304-.451.477-1.043.516-1.775.029-.546-.026-1.01-.165-1.391a2.214 2.214 0 0 0-.631-.935 2.526 2.526 0 0 0-1.031-.557 5.036 5.036 0 0 0-1.29-.229c-.426-.023-.743.04-.951.189-.195.149-.328.376-.398.679a7.232 7.232 0 0 0-.143 1.174l-.211 3.914c.199.025.384.055.556.091.185.023.385.034.599.032Zm17.207-6.321c-.425.041-.732.154-.92.34-.189.173-.3.421-.332.744a7.445 7.445 0 0 0 0 1.222l.538 8.203c.023.359.038.685.044.979.018.279.02.506.004.681.225-.041.47-.071.736-.088.279-.032.517-.061.716-.087l.072 1.098-4.91.321-.057-.878c.437-.055.744-.169.92-.341.189-.172.299-.42.332-.743.032-.323.032-.73 0-1.223l-.544-8.302c-.02-.293-.031-.572-.035-.839a41.959 41.959 0 0 1-.008-.721c-.225.028-.47.057-.735.088-.266.031-.504.06-.716.087l-.072-1.098 4.909-.322.058.879Zm15.176 1.292a5.093 5.093 0 0 0-.843-1.717 3.324 3.324 0 0 0-1.375-1.07c-.545-.239-1.177-.286-1.896-.141-.735.134-1.281.445-1.64.93a1.988 1.988 0 0 0-.379 1.595c.094.511.317.918.67 1.219.351.288.795.526 1.33.712.549.184 1.157.358 1.824.521.536.118 1.085.262 1.644.431.56.169 1.08.385 1.562.649.48.251.888.59 1.223 1.017.333.413.558.935.673 1.564.134.735.064 1.425-.211 2.072s-.736 1.199-1.385 1.656c-.635.455-1.451.774-2.447.956a6.997 6.997 0 0 1-1.838.072 6.659 6.659 0 0 1-1.825-.418l.25.808-1.2.219-.871-4.313.945-.173c.313 1.122.878 1.913 1.695 2.374.826.445 1.738.576 2.735.394a3.309 3.309 0 0 0 1.307-.524c.373-.258.647-.579.82-.963.174-.384.219-.806.135-1.265-.098-.538-.345-.96-.74-1.267a4.148 4.148 0 0 0-1.393-.722 21.523 21.523 0 0 0-1.671-.467 29.57 29.57 0 0 1-1.711-.459 7.75 7.75 0 0 1-1.523-.657 3.922 3.922 0 0 1-1.183-1.024c-.323-.429-.541-.958-.657-1.588a3.84 3.84 0 0 1-.015-1.196c.057-.431.209-.859.456-1.283.248-.425.62-.798 1.117-1.12.508-.336 1.175-.58 2.001-.732a7.515 7.515 0 0 1 1.712-.089c.656.029 1.273.18 1.852.454l-.23-.812 1.181-.216.806 4.407-.905.166Zm12.992 10.438-.726-.264c.088-.221.159-.52.214-.898a5.7 5.7 0 0 0 .072-1.232 3.21 3.21 0 0 0-.232-1.203 1.109 1.109 0 0 1-.227.15c-.06.032-.128.059-.205.082-.268.08-.531.061-.789-.058-.261-.131-.44-.356-.534-.675-.111-.371-.089-.697.064-.979.161-.298.402-.495.721-.59.499-.148.923-.079 1.272.207.358.269.615.665.77 1.189.103.345.159.767.167 1.265.022.494-.016.999-.113 1.515a6.27 6.27 0 0 1-.454 1.491Zm17.697-10.357-.419-.796c.354-.186.575-.424.664-.712.09-.288.115-.626.077-1.012a134.97 134.97 0 0 0-.153-1.321l-1.582-11.668.707-.373 9.106 7.884c.212.174.48.425.803.752.317.315.541.612.672.889a5.89 5.89 0 0 1 .566-.343c.194-.117.376-.228.547-.334l.513.974-4.299 2.265-.411-.778c.407-.229.632-.461.674-.694a.896.896 0 0 0-.176-.721 3.185 3.185 0 0 0-.569-.65l-1.286-1.154-4.279 2.391.298 1.81c.054.273.095.537.125.793.029.256.055.506.078.75.2-.135.418-.265.654-.39.242-.142.454-.269.636-.38l.522.991-3.468 1.827Zm.97-6.524 3.716-1.958-2.691-2.403a88.926 88.926 0 0 1-1.013-.936c-.334-.321-.648-.63-.941-.928l-.018.009c.061.345.126.725.195 1.141.068.416.135.871.199 1.365l.553 3.71Zm15.922-2.955-.514-.714c.342-.279.542-.538.6-.777.069-.246.032-.515-.112-.806a7.654 7.654 0 0 0-.647-1.037l-4.859-6.754c-.171-.238-.329-.47-.474-.694a37.01 37.01 0 0 1-.388-.608l-.577.465a47.73 47.73 0 0 0-.562.453l-.642-.893c.653-.486 1.314-.97 1.985-1.453a80.99 80.99 0 0 1 2.03-1.46c1.017-.732 1.942-1.216 2.773-1.453.824-.247 1.562-.261 2.214-.04.662.214 1.237.67 1.725 1.371.322.425.547.92.674 1.486.12.554.084 1.155-.108 1.802-.191.647-.604 1.329-1.237 2.048.31-.026.633.012.97.115.337.103.698.229 1.085.378l2.088.814c.439.176.827.316 1.164.419.337.103.66.141.97.115.302-.037.605-.164.908-.382l.513.715-2.256 1.623a5.949 5.949 0 0 1-1.28-.238 54.569 54.569 0 0 1-1.31-.486l-2.429-1.012-.957-.372c-.33-.14-.65-.23-.958-.271l-.52.374-.503.362 1.927 2.679c.21.292.395.561.556.807.163.227.285.419.364.576.123-.105.254-.207.395-.309l.415-.347c.143-.12.269-.219.378-.297l.642.893-4.043 2.908Zm-.265-8.383c.588-.439 1.03-.897 1.328-1.374.29-.487.416-.997.378-1.529-.045-.542-.281-1.111-.71-1.706-.319-.444-.652-.771-1-.98a2.213 2.213 0 0 0-1.078-.334 2.536 2.536 0 0 0-1.152.213c-.387.147-.77.357-1.149.63-.347.249-.554.497-.623.743-.058.239-.019.499.116.779.136.28.344.615.624 1.004l2.29 3.183c.17-.106.333-.199.489-.279.159-.098.322-.215.487-.35Zm13.866-15.182a5.1 5.1 0 0 0-1.643-.979 3.323 3.323 0 0 0-1.736-.146c-.588.097-1.143.403-1.666.917-.542.514-.831 1.072-.866 1.674-.035.603.149 1.117.552 1.543.358.378.767.596 1.227.656.452.05.953.007 1.503-.129a22.583 22.583 0 0 0 1.812-.559 22.576 22.576 0 0 1 1.613-.537 8.138 8.138 0 0 1 1.664-.308 3.752 3.752 0 0 1 1.58.184c.504.165.977.479 1.417.944.513.542.832 1.159.954 1.851.123.692.038 1.406-.256 2.143-.284.728-.794 1.441-1.529 2.138a6.956 6.956 0 0 1-1.5 1.062 6.642 6.642 0 0 1-1.758.646l.65.541-.885.839-3.084-3.139.697-.661c.875.769 1.78 1.124 2.715 1.064.936-.078 1.772-.466 2.508-1.163.368-.348.637-.732.809-1.152.172-.42.226-.838.161-1.255a2.09 2.09 0 0 0-.577-1.133c-.376-.397-.813-.616-1.312-.658a4.16 4.16 0 0 0-1.561.156c-.541.146-1.093.319-1.655.521s-1.123.384-1.684.548a7.718 7.718 0 0 1-1.635.281 3.925 3.925 0 0 1-1.55-.211c-.504-.184-.977-.508-1.417-.973a3.82 3.82 0 0 1-.666-.994 3.434 3.434 0 0 1-.318-1.324c-.024-.491.084-1.007.325-1.547.242-.56.667-1.128 1.277-1.706a7.53 7.53 0 0 1 1.386-1.009 4.782 4.782 0 0 1 1.799-.631l-.635-.554.871-.826 3.081 3.253-.668.633Zm14.1-.552c-.235.273-.535.42-.903.438a1.41 1.41 0 0 1-.978-.364 1.344 1.344 0 0 1-.482-.913c-.039-.385.05-.704.267-.957.234-.273.536-.41.905-.41.358-.009.679.108.963.351.293.252.459.561.497.927.046.355-.044.665-.269.928Z" fill="#fff"/>

  <!-- SYMBOL1 -->
  <path stroke="#fff" d="M498.581 429v-55"/>
  <path transform="scale(.98163 1.01804) rotate(-45 724.893 -400.215)" stroke="#fff" d="M.694 0h17.009v17.009H.694z"/>
  <path transform="scale(.98163 1.01804) rotate(-45 717.21 -420.41)" stroke="#fff" d="M0-.5h10.805"/>
  <path transform="scale(.98163 1.01804) rotate(45 -203.888 792.773)" stroke="#fff" d="M0-.5h10.805"/>
  <path transform="scale(.98163 1.01804) rotate(45 -237.677 816.956)" stroke="#fff" d="M0-.5h10.805"/>
  
  <path transform="scale(.98163 1.01804) rotate(-45 751 -396.227)" stroke="#fff" d="M0-.5h10.805"/>

  <!-- SYMBOL2 -->
  <path stroke="#fff" d="M112.5 374v55M94 402.5h50m-40-16h34"/>
  <path d="m103.5 390 4.763 8.25h-9.526L103.5 390Z" fill="#fff"/>
  
  <circle cx="122.5" cy="414.5" r="7" stroke="#fff"/>
  <circle cx="122.5" cy="414.5" r="2.5" fill="#fff"/>
  
  <!-- SYMBOL3 -->
  <path stroke="#fff" d="M214 529.009V474m-28 26.505h55.01m-26.51 1h14v14h-14zm-15-15h14v14h-14zm15 5h9v9h-9zm-10 9h9v9h-9z"/>

  
  
  <!-- SYMBOL5 -->
  <path stroke="#fff" stroke-dasharray="2 2" d="M159.5 132.5h-14v34h14z"/>
  <path stroke="#fff" stroke-dasharray="2 2" d="M140.5 122.5h24v54h-24z"/>
  <path stroke="#fff" stroke-dasharray="2 2" d="M143.5 127.5h19v44h-19z"/>
  <path stroke="#fff" stroke-dasharray="2 2" d="M147.5 136.5h9v24h-9z"/>
  <path stroke="#fff" stroke-dasharray="2 2" d="M150.5 139.5h4v19h-4z"/>

  <!-- SYMBOL 5 -->
  <circle cx="348" cy="517" r="20.5" stroke="#fff"/>
  <circle cx="348.5" cy="509.5" r="7.5" fill="#fff"/>
  
  <path d="m331 540 16 5.5 19-5.5m-37-42.5 21-7.5 17 7.5m-236-43h64m-57.272 23.081 53.682-34.847" stroke="#fff"/>

  <!-- SYMBOL6 -->
  <circle cx="176" cy="466" r="6" fill="#fff"/>
  <circle cx="146" cy="445" r="5.5" stroke="#fff"/>
  
  <!-- SYMBOL7 -->
   <circle cx="344" cy="86.039" r="20.5" stroke="#fff"/>
  <circle cx="341.5" cy="97.539" r="7" stroke="#fff"/>
  <circle cx="344" cy="84.039" r="4" fill="#fff"/>
  <circle cx="344.5" cy="97.539" r="2.5" fill="#fff"/>
  <path stroke="#fff" d="M316 84.539h58m-30 30.539V57"/>

  <!-- SYMBOL9 -->
  <path d="M521.849 251.151a20.997 20.997 0 0 1-.337 30.028 20.994 20.994 0 0 1-20.703 4.888 21.009 21.009 0 0 1-14.351-15.703 20.998 20.998 0 0 1 .62-11.005l.477.159a20.497 20.497 0 1 0 33.939-8.012l.355-.355Z" fill="#fff"/>

  
  <path d="M514.522 258.223a.5.5 0 0 0-.233.668l1.961 4.05a.5.5 0 0 0 .9-.436l-1.743-3.6 3.601-1.743a.5.5 0 0 0-.436-.9l-4.05 1.961Zm19.922 6.771-19.54-6.794-.329.945 19.541 6.793.328-.944Z" fill="#fff"/>
  
  <circle cx="490" cy="278" r="4.5" stroke="#fff"/>
  <circle cx="523.5" cy="277.5" r="7" stroke="#fff"/>
  <circle cx="499.5" cy="276.5" r="2" stroke="#fff"/>
  <circle cx="499" cy="285" r="3.5" stroke="#fff"/>

  <!-- SYMBOL10 -->
  <path stroke="#fff" d="M183.5 87.5h41v41h-41z"/>
  <path d="m222 87-18 21.538L222 129" stroke="#fff"/>
  <path d="m204 87 16 21-16 21" stroke="#fff"/>
  <path stroke="#fff" stroke-dasharray="2 2" d="M192.5 87v42m5-40v40"/>
  <circle cx="212" cy="108" r="4" fill="#fff"/>
  
  <!-- SYMBOL12 -->
  <path fill="#fff" d="M445 450h24v35h-24z"/>
  <path d="m439 428 18 22.5 22-22.5" stroke="#fff"/>
  <circle cx="457" cy="432" r="4" fill="#fff"/>
  
  <!-- SYMBOL13 -->
  <path d="M448.88 148.25 467.5 116l18.62 32.25h-37.24Zm-12.88.25h65m-39.5 1.5v20m10 7v-28" stroke="#fff"/>
  <circle cx="461.5" cy="170.5" r="5.5" fill="#fff"/>
  <path d="m471.5 174 1.908 5.873h6.176l-4.996 3.63 1.908 5.874-4.996-3.63-4.996 3.63 1.908-5.874-4.996-3.63h6.176L471.5 174Z" fill="#fff"/>
  
  <!-- SYMBOL14 -->
  <path stroke="#fff" d="M112.5 205.5h21v21h-21zm-22-21h21v21h-21z"/>
  <path d="M124.494 188.925a.499.499 0 0 0-.569-.419l-4.449.674a.5.5 0 1 0 .15.988l3.955-.599.599 3.955a.5.5 0 1 0 .988-.15l-.674-4.449Zm-28.091 38.372 28-38-.806-.594-28 38 .806.594Z" fill="#fff"/>
  <circle cx="101" cy="195" r="6" fill="#fff"/>
  <circle cx="123" cy="216" r="5.5" stroke="#fff"/>

  
  <!-- SYMBOL15 -->
  <path d="M270.125 546.004a1.25 1.25 0 0 0 2.5 0h-2.5Zm2.5 0v-37.022h-2.5v37.022h2.5Z" fill="#fff"/>
  <path stroke="#fff" stroke-width="2" d="M270 508h16"/>
  <path fill="#fff" d="M270 499h8v8h-8z"/>
  <path stroke="#fff" stroke-width="2" d="M261 500h12"/>
  <path d="m271.835 492.989 1.665-1.346 1.665 1.346v3.022l-1.665 1.346-1.665-1.346v-3.022Z" stroke="#fff"/>
  
  <!--SYMBOL16 -->
  <rect x="395.5" y="475.5" width="24" height="49" rx="1.5" stroke="#fff"/>
  <circle cx="407.5" cy="492.5" r="7" stroke="#fff" stroke-dasharray="2 2"/>
  <path stroke="#fff" d="M395 512.5h25"/>
  <circle cx="403.5" cy="517.5" r="2.5" fill="#fff"/>
  <circle cx="411.5" cy="517.5" r="2.5" fill="#fff"/>
  
  
  <!-- SYMBOL18 -->
  <path d="M76.368 291.395c9.35-3.053 12.737-6.553 12.737-16.452 0-4.091 1.803-4.776 5.307-4.776 7.719 0 14.766-7.242 18.044-13.799" stroke="#fff" stroke-linecap="round"/>
  <path d="M90.167 271.289c-6.182-2.627-14.86-8.575-14.86-15.921m22.29 13.799c-.823-4.214-1.072-5.969.825-9.553.863-1.63 1.616-2.214 0-4.01-1.558-1.73-4.32-5.698-6.132-6.604m-3.185 23.351c-6.875 5-11.3 4.963-19.105 1.061m20.105-2.061c8.376 10.721 11.762 0 21.228 0m-12.965-1.898c4.01 0 7.861.208 11.764-1.1 1.837-.615 2.936-2.057 4.861-2.199 2.207-.163 2.896-3.718 4.375 0" stroke="#fff" stroke-linecap="round"/>
  <path d="M90.167 272.351c-.392-2.008-.28-12.877-2.123-13.798" stroke="#fff" stroke-linecap="round"/>

  <!-- SYMBOL19/20 -->
  <path stroke="#fff" d="M494.5 239v-44m-5.5 7 12 13-12 17"/>
  <path d="m510 215.5-5-2.887v5.774l5-2.887Zm-27 .5h22.5v-1H483v1ZM294 75a25.001 25.001 0 0 1-42.678 17.678A25.001 25.001 0 0 1 244 75h.495A24.507 24.507 0 0 0 269 99.505 24.507 24.507 0 0 0 293.505 75H294Z" fill="#fff"/>

  <!-- GRADE DO SYMBOL11 E BONECO DO 20 -->
  <path stroke="#fff" d="M269.5 66v50m.356-11.373 6.181 10.286m-7.75-38.323 20 14M248 87.39l22.82-10.032-19.32 16.094m158 44.584V83M388 96.5h45m-45 13h45m-45 13h45"/>

  <!-- CIRCULOS E TRI. DO SYMBOL11 -->
  <circle cx="421" cy="87" r="4" fill="#fff"/>
  <circle cx="421" cy="115" r="4" fill="#fff"/>
  <circle cx="421" cy="131" r="4" fill="#fff"/>
  <path d="m399 126 5.196 9h-10.392l5.196-9Z" fill="#fff"/>
  
  
  <!-- SYMBOL8 -->
  <circle cx="91" cy="335" r="20.5" stroke="#fff" stroke-dasharray="2 2"/>
  <circle cx="93" cy="335" r="15.5" stroke="#fff"/>
  <circle cx="96" cy="335" r="10.5" stroke="#fff" stroke-dasharray="2 2"/>
  <circle cx="99" cy="335" r="5.5" stroke="#fff"/>
  <path stroke="#fff" d="M112 335.5H70"/>
  
  <!-- SYMBOL17 -->
  <g filter="url(#h)">
    <path stroke="#fff" d="M513.5 347v-21"/>
  </g>
  <path stroke="#fff" d="M506.5 313.5h14v43h-14z"/>
  <g filter="url(#i)">
    <path d="m509 330 4 5 5-5" stroke="#fff"/>
  </g>
  <g filter="url(#j)">
    <path d="m513.5 319 2.165 2.25v4.5L513.5 328l-2.165-2.25v-4.5L513.5 319Z" fill="#fff"/>
  </g>
  
  <defs>
    <linearGradient id="b" x1="304" y1="20" x2="304" y2="580" gradientUnits="userSpaceOnUse">
      <stop stop-color="#AE8625"/>
      <stop offset=".38" stop-color="#F7EF8A"/>
      <stop offset=".776" stop-color="#D2AC47"/>
      <stop offset="1" stop-color="#EDC967"/>
    </linearGradient>
    <linearGradient id="c" x1="304" y1="150" x2="304" y2="450" gradientUnits="userSpaceOnUse">
      <stop stop-color="#AE8625"/>
      <stop offset=".427" stop-color="#F7EF8A"/>
      <stop offset=".823" stop-color="#D2AC47"/>
      <stop offset="1" stop-color="#EDC967"/>
    </linearGradient>
    <linearGradient id="d" x1="304" y1="85" x2="303" y2="85" gradientUnits="userSpaceOnUse">
      <stop stop-color="#AE8625"/>
      <stop offset=".391" stop-color="#F7EF8A"/>
      <stop offset=".781" stop-color="#D2AC47"/>
      <stop offset="1" stop-color="#EDC967"/>
    </linearGradient>
    <linearGradient id="e" x1="304" y1="515" x2="303" y2="515" gradientUnits="userSpaceOnUse">
      <stop stop-color="#AE8625"/>
      <stop offset=".432" stop-color="#F7EF8A"/>
      <stop offset=".859" stop-color="#D2AC47"/>
      <stop offset="1" stop-color="#EDC967"/>
    </linearGradient>
    <linearGradient id="f" x1="89" y1="300" x2="89" y2="299" gradientUnits="userSpaceOnUse">
      <stop stop-color="#AE8625"/>
      <stop offset=".422" stop-color="#F7EF8A"/>
      <stop offset=".823" stop-color="#D2AC47"/>
      <stop offset="1" stop-color="#EDC967"/>
    </linearGradient>
    <linearGradient id="g" x1="519" y1="300" x2="519" y2="301" gradientUnits="userSpaceOnUse">
      <stop stop-color="#AE8625"/>
      <stop offset=".453" stop-color="#F7EF8A"/>
      <stop offset=".818" stop-color="#D2AC47"/>
      <stop offset="1" stop-color="#EDC967"/>
    </linearGradient>
    <filter id="a" x="0" y="0" width="608" height="608" filterUnits="userSpaceOnUse" color-interpolation-filters="sRGB">
      <feFlood flood-opacity="0" result="BackgroundImageFix"/>
      <feColorMatrix in="SourceAlpha" values="0 0 0 0 0 0 0 0 0 0 0 0 0 0 0 0 0 0 127 0" result="hardAlpha"/>
      <feOffset dy="4"/>
      <feGaussianBlur stdDeviation="2"/>
      <feComposite in2="hardAlpha" operator="out"/>
      <feColorMatrix values="0 0 0 0 0 0 0 0 0 0 0 0 0 0 0 0 0 0 0.25 0"/>
      <feBlend in2="BackgroundImageFix" result="effect1_dropShadow_34_2"/>
      <feBlend in="SourceGraphic" in2="effect1_dropShadow_34_2" result="shape"/>
    </filter>
    <filter id="h" x="509" y="322" width="9" height="29" filterUnits="userSpaceOnUse" color-interpolation-filters="sRGB">
      <feFlood flood-opacity="0" result="BackgroundImageFix"/>
      <feBlend in="SourceGraphic" in2="BackgroundImageFix" result="shape"/>
      <feGaussianBlur stdDeviation="2" result="effect1_foregroundBlur_34_2"/>
    </filter>
    <filter id="i" x="504.61" y="325.646" width="17.744" height="14.102" filterUnits="userSpaceOnUse" color-interpolation-filters="sRGB">
      <feFlood flood-opacity="0" result="BackgroundImageFix"/>
      <feBlend in="SourceGraphic" in2="BackgroundImageFix" result="shape"/>
      <feGaussianBlur stdDeviation="2" result="effect1_foregroundBlur_34_2"/>
    </filter>
    <filter id="j" x="507.335" y="315" width="12.33" height="17" filterUnits="userSpaceOnUse" color-interpolation-filters="sRGB">
      <feFlood flood-opacity="0" result="BackgroundImageFix"/>
      <feBlend in="SourceGraphic" in2="BackgroundImageFix" result="shape"/>
      <feGaussianBlur stdDeviation="2" result="effect1_foregroundBlur_34_2"/>
    </filter>
  </defs>
</svg>
