<?xml version="1.0" encoding="UTF-8"?>
<svg version="1.0" viewBox="0 0 400 400.11" xmlns="http://www.w3.org/2000/svg">
  <g transform="translate(482.86 159.12)">
    <g transform="translate(-402.86 -364.07)" stroke="url(#b)">
      <path d="m110.2 405l7.3507 195.46s0 3.6764 2.4502 3.6764 2.4502-3.6764 2.4502-3.6764l7.3507-195.46" stroke-width="1.8379"/>
      <path d="m101.53 468.15c-11.254 24.597-1.5898 44.697-12.833 66.169-11.244 21.472-4.2144 39.16-4.9679 49.011-0.75347 9.8511-8.8115 12.588-6.7768 14.878s10.459-2.2485 13.746-15.336c3.287-13.087-4.5567-20.624 8.9254-46.955 13.482-26.332 2.7696-38.204 16.302-61.711" stroke-width="1.8379"/>
      <path d="m129.8 405l-7.3507-195.46s0-3.6764-2.4502-3.6764-2.4502 3.6764-2.4502 3.6764l-7.3507 195.46" stroke-width="1.8379"/>
      <path d="m138.47 341.85c11.254-24.597 1.5898-44.697 12.833-66.169 11.244-21.472 4.2144-39.16 4.9678-49.011 0.75347-9.8511 8.8114-12.588 6.7768-14.878-2.0347-2.2899-10.459 2.2484-13.746 15.336-3.287 13.087 4.5567 20.624-8.9254 46.955-13.482 26.332-2.7696 38.204-16.302 61.711" stroke-width="1.8379"/>
      <path d="m120 395.2l-195.41 7.3527s-3.6753 0-3.6753 2.4509c0 2.4509 3.6753 2.4509 3.6753 2.4509l195.41 7.3527" stroke-width="1.8379"/>
      <path d="m56.871 386.53c-24.59-11.257-44.684-1.5903-66.151-12.837s-39.149-4.2156-48.998-4.9692c-9.8484-0.75368-12.585-8.8139-14.874-6.7787-2.2893 2.0352 2.2478 10.462 15.331 13.75s20.618-4.558 46.942 8.9279c26.324 13.486 38.193 2.7704 61.694 16.307" stroke-width="1.8379"/>
      <path d="m120 414.8l195.41-7.3527s3.6753 0 3.6753-2.4509c0-2.4509-3.6753-2.4509-3.6753-2.4509l-195.41-7.3527" stroke-width="1.8379"/>
      <path d="m183.13 423.47c24.59 11.257 44.684 1.5903 66.151 12.837 21.466 11.247 39.149 4.2156 48.998 4.9692 9.8484 0.75368 12.585 8.8139 14.874 6.7787 2.2893-2.0352-2.2478-10.462-15.331-13.75-13.084-3.2879-20.618 4.558-46.942-8.9279s-38.193-2.7704-61.694-16.307" stroke-width="1.8379"/>
      <path d="m113.07 398.07l-132.97 143.41s-2.5989 2.5996-0.86629 4.3326 4.3314-0.86652 4.3314-0.86652l143.37-133.01" stroke-width="1.8379"/>
      <path d="m62.301 436.59c-25.345 9.4326-32.721 30.481-55.85 37.711-23.13 7.2307-30.663 24.71-38.159 31.142s-15.129 2.6688-15.309 5.7272c-0.18004 3.0583 8.9851 5.8078 20.561-1.1214 11.576-6.9292 11.357-17.806 39.504-26.889 28.148-9.0834 28.965-25.055 55.152-32.106" stroke-width="1.8379"/>
      <path d="m126.93 411.93l132.97-143.41s2.5989-2.5996 0.86629-4.3326c-1.7326-1.733-4.3314 0.86652-4.3314 0.86652l-143.37 133.01" stroke-width="1.8379"/>
      <path d="m177.7 373.41c25.345-9.4326 32.721-30.481 55.85-37.711s30.663-24.71 38.159-31.142 15.129-2.6688 15.309-5.7272c0.18003-3.0583-8.9851-5.8078-20.561 1.1214-11.576 6.9292-11.357 17.806-39.504 26.889-28.148 9.0834-28.965 25.055-55.152 32.106" stroke-width="1.8379"/>
      <path d="m126.93 398.07l-143.37-133.01s-2.5989-2.5996-4.3314-0.86652 0.86629 4.3326 0.86629 4.3326l132.97 143.41" stroke-width="1.8379"/>
      <path d="m88.421 347.29c-9.43-25.352-30.472-32.73-37.701-55.866-7.2287-23.136-24.703-30.671-31.134-38.17-6.4311-7.4987-2.6681-15.134-5.7256-15.314-3.0575-0.18009-5.8062 8.9876 1.121 20.567 6.9272 11.579 17.801 11.36 26.882 39.515 9.0809 28.155 25.048 28.973 32.097 55.167" stroke-width="1.8379"/>
      <path d="m113.07 411.93l143.37 133.01s2.5989 2.5996 4.3314 0.86652c1.7326-1.733-0.86629-4.3326-0.86629-4.3326l-132.97-143.41" stroke-width="1.8379"/>
      <path d="m151.58 462.71c9.43 25.352 30.472 32.73 37.701 55.866 7.2287 23.136 24.703 30.671 31.134 38.17 6.4311 7.4987 2.6681 15.134 5.7256 15.314s5.8062-8.9876-1.121-20.567-17.801-11.36-26.882-39.515c-9.0809-28.155-25.048-28.973-32.097-55.167" stroke-width="1.8379"/>
      <path d="m110.95 401.25l-67.987 183.39s-1.4065 3.3965 0.85722 4.3344c2.2637 0.93792 3.6702-2.4586 3.6702-2.4586l81.57-177.77" stroke-width="1.8379"/>
      <path d="m78.778 456.27c-19.807 18.417-18.569 40.686-37.171 56.22-18.603 15.534-18.875 34.566-23.34 43.379-4.4649 8.8128-12.957 8.257-11.953 11.152 1.0037 2.8944 10.523 1.9263 18.567-8.9065 8.0437-10.833 3.6803-20.798 26.21-39.965s17.175-34.235 38.671-50.773" stroke-width="1.8379"/>
      <path d="m129.05 408.75l67.987-183.39s1.4065-3.3965-0.85723-4.3344c-2.2637-0.93792-3.6702 2.4586-3.6702 2.4586l-81.57 177.77" stroke-width="1.8379"/>
      <path d="m161.22 353.73c19.807-18.417 18.569-40.686 37.171-56.22 18.603-15.534 18.875-34.566 23.34-43.379 4.4649-8.8128 12.957-8.257 11.953-11.152s-10.523-1.9263-18.567 8.9065c-8.0436 10.833-3.6803 20.798-26.21 39.965s-17.175 34.235-38.671 50.773" stroke-width="1.8379"/>
      <path d="m123.75 395.94l-183.34-68.006s-3.3956-1.4069-4.3332 0.85746 2.4579 3.6712 2.4579 3.6712l177.72 81.592" stroke-width="1.8379"/>
      <path d="m68.745 363.77c-18.411-19.813-40.674-18.574-56.204-37.182-15.53-18.608-34.557-18.881-43.367-23.347-8.8104-4.4662-8.2548-12.96-11.148-11.956-2.8936 1.004-1.9258 10.526 8.904 18.572 10.83 8.0459 20.792 3.6813 39.953 26.217 19.161 22.536 34.226 17.179 50.759 38.682" stroke-width="1.8379"/>
      <path d="m116.25 414.06l183.34 68.006s3.3956 1.4069 4.3332-0.85746c0.93766-2.2643-2.4579-3.6712-2.4579-3.6712l-177.72-81.592" stroke-width="1.8379"/>
      <path d="m171.26 446.23c18.411 19.813 40.674 18.574 56.204 37.182 15.53 18.608 34.557 18.881 43.367 23.347 8.8104 4.4662 8.2548 12.96 11.148 11.956 2.8936-1.004 1.9258-10.526-8.904-18.572s-20.792-3.6813-39.953-26.217c-19.161-22.536-34.226-17.179-50.759-38.682" stroke-width="1.8379"/>
      <path d="m116.25 395.94l-177.72 81.592s-3.3956 1.4069-2.4579 3.6712c0.93766 2.2643 4.3332 0.85745 4.3332 0.85745l183.34-68.006" stroke-width="1.8379"/>
      <path d="m54.609 412.1c-27.025-0.9874-41.891 15.635-66.026 13.462-24.135-2.1734-37.782 11.091-47.169 14.165s-14.999-3.3257-16.335-0.56906c-1.3364 2.7566 6.0792 8.8051 19.425 6.8345 13.346-1.9706 17.305-12.103 46.785-9.7207 29.48 2.3826 36.346-12.06 63.237-8.5502" stroke-width="1.8379"/>
      <path d="m123.75 414.06l177.72-81.592s3.3956-1.4069 2.4579-3.6712c-0.93767-2.2644-4.3332-0.85746-4.3332-0.85746l-183.34 68.006" stroke-width="1.8379"/>
      <path d="m185.39 397.9c27.025 0.9874 41.891-15.635 66.026-13.462 24.135 2.1734 37.782-11.091 47.169-14.165 9.3871-3.0736 14.999 3.3257 16.335 0.56906 1.3364-2.7566-6.0792-8.8051-19.425-6.8345-13.346 1.9706-17.305 12.103-46.785 9.7207-29.48-2.3826-36.346 12.06-63.237 8.5502" stroke-width="1.8379"/>
      <path d="m129.05 401.25l-81.57-177.77s-1.4065-3.3965-3.6702-2.4586c-2.2637 0.93792-0.85722 4.3344-0.85722 4.3344l67.987 183.39" stroke-width="1.8379"/>
      <path d="m112.91 339.59c0.98712-27.032-15.631-41.903-13.458-66.045 2.1728-24.142-11.088-37.793-14.161-47.182-3.0727-9.3897 3.3248-15.003 0.5689-16.34-2.7559-1.3368-8.8027 6.0809-6.8326 19.43 1.9701 13.349 12.1 17.309 9.718 46.798-2.3819 29.488 12.057 36.356 8.5478 63.254" stroke-width="1.8379"/>
      <path d="m110.95 408.75l81.57 177.77s1.4065 3.3965 3.6702 2.4586c2.2637-0.93792 0.85723-4.3344 0.85723-4.3344l-67.987-183.39" stroke-width="1.8379"/>
      <path d="m127.09 470.41c-0.98712 27.032 15.631 41.903 13.458 66.045-2.1728 24.142 11.088 37.793 14.161 47.182 3.0727 9.3897-3.3248 15.003-0.5689 16.34 2.7559 1.3368 8.8027-6.0809 6.8326-19.43-1.9701-13.349-12.1-17.309-9.718-46.798 2.382-29.488-12.057-36.356-8.5478-63.254" stroke-width="1.8379"/>
    </g>
    <g transform="translate(-402.86 -364.07)" fill="#000">
      <path d="m115.1 405l4.9004 134.19 4.9004-134.19"/>
      <path d="m104.63 474.4c-8.7308 24.485 0.46556 40.738-11.256 61.488 13.024-14.857 4.4379-34.112 15.814-59.31"/>
      <path d="m116.53 401.53l-91.393 98.351 98.323-91.418"/>
      <path d="m115.47 403.12l-46.81 125.85 55.864-122.1"/>
      <path d="m79.25 463.24c-17.434 19.279-15.155 37.815-33.923 52.499 17.716-8.7411 17.151-29.817 37.301-48.742"/>
      <path d="m124.9 405l-4.9004-134.19-4.9004 134.19"/>
      <path d="m135.37 335.59c8.7308-24.485-0.46556-40.738 11.256-61.488-13.024 14.857-4.4379 34.112-15.814 59.31"/>
      <path d="m120 400.1l-134.15 4.9018 134.15 4.9018"/>
      <path d="m50.614 389.63c-24.478-8.7332-40.727 0.46569-61.471-11.259 14.853 13.027 34.103 4.4391 59.293 15.818"/>
      <path d="m60.071 443.21c-23.482 11.138-28.469 29.135-51.426 35.517 19.712-1.2941 27.253-20.982 53.109-30.753"/>
      <path d="m123.47 401.53l-98.323-91.418 91.393 98.351"/>
      <path d="m81.803 345.05c-11.135-23.489-29.127-28.477-35.507-51.44 1.2938 19.717 20.976 27.26 30.744 53.124"/>
      <path d="m124.53 406.88l46.81-125.85-55.864 122.1"/>
      <path d="m121.88 400.47l-125.81-46.822 122.06 55.88"/>
      <path d="m61.776 364.24c-19.274-17.438-37.805-15.159-52.484-33.933 8.7387 17.721 29.809 17.156 48.728 37.311"/>
      <path d="m118.12 400.47l-122.06 55.88 125.81-46.822"/>
      <path d="m50.015 417.36c-25.956 1.3016-37.448 16.02-61.099 13.128 18.707 6.3499 33.205-8.953 60.832-8.0826"/>
      <path d="m124.53 403.12l-55.864-122.1 46.81 125.85"/>
      <path d="m107.64 335c-1.3012-25.963-16.016-37.459-13.125-61.116-6.3482 18.712 8.9506 33.215 8.0803 60.848"/>
      <path d="m120 409.9l134.15-4.9018-134.15-4.9018"/>
      <path d="m189.39 420.37c24.478 8.7332 40.727-0.46569 61.471 11.259-14.853-13.027-34.103-4.4391-59.293-15.818"/>
      <path d="m123.47 408.47l91.393-98.351-98.323 91.418"/>
      <path d="m179.93 366.79c23.482-11.138 28.469-29.135 51.426-35.517-19.712 1.2941-27.253 20.982-53.109 30.753"/>
      <path d="m116.53 408.47l98.323 91.418-91.393-98.351"/>
      <path d="m158.2 464.95c11.135 23.489 29.127 28.477 35.507 51.44-1.2938-19.717-20.976-27.26-30.744-53.124"/>
      <path d="m160.75 346.76c17.434-19.279 15.155-37.815 33.923-52.499-17.716 8.7411-17.151 29.817-37.301 48.742"/>
      <path d="m118.12 409.53l125.81 46.822-122.06-55.88"/>
      <path d="m178.22 445.76c19.274 17.438 37.805 15.159 52.484 33.933-8.7387-17.721-29.809-17.156-48.728-37.311"/>
      <path d="m121.88 409.53l122.06-55.88-125.81 46.822"/>
      <path d="m189.98 392.64c25.956-1.3016 37.448-16.02 61.099-13.128-18.707-6.3499-33.205 8.953-60.832 8.0826"/>
      <path d="m115.47 406.88l55.864 122.1-46.81-125.85"/>
      <path d="m132.36 475c1.3012 25.963 16.016 37.459 13.124 61.116 6.3482-18.712-8.9506-33.215-8.0803-60.848"/>
    </g>
    <circle transform="matrix(1.2251 0 0 1.2255 -282.86 40.934)" r="65" d="M 65,0 C 65,35.898509 35.898509,65 0,65 -35.898509,65 -65,35.898509 -65,0 c 0,-35.898509 29.101491,-65 65,-65 35.898509,0 65,29.101491 65,65 z" stroke="url(#b)"/>
  </g>
  <defs>
    <linearGradient id="b" x1="304" y1="20" x2="304" y2="580" gradientUnits="userSpaceOnUse">
      <stop stop-color="#AE8625"/>
      <stop offset=".38" stop-color="#F7EF8A"/>
      <stop offset=".776" stop-color="#D2AC47"/>
      <stop offset="1" stop-color="#EDC967"/>
    </linearGradient>
  </defs>
</svg>
