<svg width="608" height="608" viewBox="0 0 608 608" fill="none" xmlns="http://www.w3.org/2000/svg">

<g clip-path="url(#b)">
    <path d="m299.87 301.498 3.473 92.329s0 1.737 1.157 1.737c1.158 0 1.158-1.737 1.158-1.737l3.473-92.329" fill="#000"/>
    <path d="m299.87 301.498 3.473 92.329s0 1.737 1.157 1.737c1.158 0 1.158-1.737 1.158-1.737l3.473-92.329" stroke="url(#b)" stroke-width="1.838"/>
    <path d="M295.773 331.328c-5.318 11.619-.751 21.113-6.064 31.256-5.312 10.143-1.991 18.498-2.347 23.151-.356 4.654-4.163 5.947-3.202 7.028.961 1.082 4.942-1.062 6.495-7.244 1.553-6.182-2.153-9.742 4.217-22.18 6.37-12.439 1.309-18.047 7.703-29.151" fill="#000"/>
    <path d="M295.773 331.328c-5.318 11.619-.751 21.113-6.064 31.256-5.312 10.143-1.991 18.498-2.347 23.151-.356 4.654-4.163 5.947-3.202 7.028.961 1.082 4.942-1.062 6.495-7.244 1.553-6.182-2.153-9.742 4.217-22.18 6.37-12.439 1.309-18.047 7.703-29.151" stroke="url(#b)" stroke-width="1.838"/>
    <path d="m309.131 301.498-3.474-92.33s0-1.736-1.157-1.736c-1.158 0-1.158 1.736-1.158 1.736l-3.473 92.33" fill="#000"/>
    <path d="m309.131 301.498-3.474-92.33s0-1.736-1.157-1.736c-1.158 0-1.158 1.736-1.158 1.736l-3.473 92.33" stroke="url(#b)" stroke-width="1.838"/>
    <path d="M313.227 271.667c5.318-11.618.751-21.113 6.064-31.256 5.312-10.143 1.991-18.498 2.347-23.151.356-4.653 4.163-5.946 3.202-7.028-.961-1.082-4.942 1.062-6.495 7.244-1.553 6.182 2.153 9.742-4.217 22.18-6.371 12.439-1.309 18.047-7.703 29.151" fill="#000"/>
    <path d="M313.227 271.667c5.318-11.618.751-21.113 6.064-31.256 5.312-10.143 1.991-18.498 2.347-23.151.356-4.653 4.163-5.946 3.202-7.028-.961-1.082-4.942 1.062-6.495 7.244-1.553 6.182 2.153 9.742-4.217 22.18-6.371 12.439-1.309 18.047-7.703 29.151" stroke="url(#b)" stroke-width="1.838"/>
    <path d="m304.5 296.868-92.331 3.474s-1.737 0-1.737 1.157c0 1.158 1.737 1.158 1.737 1.158l92.331 3.473" fill="#000"/>
    <path d="m304.5 296.868-92.331 3.474s-1.737 0-1.737 1.157c0 1.158 1.737 1.158 1.737 1.158l92.331 3.473" stroke="url(#b)" stroke-width="1.838"/>
    <path d="M274.672 292.773c-11.619-5.318-21.114-.751-31.257-6.064-10.143-5.312-18.498-1.991-23.151-2.347-4.654-.356-5.947-4.164-7.028-3.202-1.082.961 1.062 4.942 7.244 6.495 6.181 1.553 9.742-2.153 22.18 4.217 12.438 6.371 18.046 1.309 29.15 7.703" fill="#000"/>
    <path d="M274.672 292.773c-11.619-5.318-21.114-.751-31.257-6.064-10.143-5.312-18.498-1.991-23.151-2.347-4.654-.356-5.947-4.164-7.028-3.202-1.082.961 1.062 4.942 7.244 6.495 6.181 1.553 9.742-2.153 22.18 4.217 12.438 6.371 18.046 1.309 29.15 7.703" stroke="url(#b)" stroke-width="1.838"/>
    <path d="m304.5 306.127 92.331-3.473s1.737 0 1.737-1.158-1.737-1.158-1.737-1.158l-92.331-3.473" fill="#000"/>
    <path d="m304.5 306.127 92.331-3.473s1.737 0 1.737-1.158-1.737-1.158-1.737-1.158l-92.331-3.473" stroke="url(#b)" stroke-width="1.838"/>
    <path d="M334.329 310.222c11.619 5.318 21.113.752 31.256 6.064 10.143 5.313 18.498 1.991 23.152 2.347 4.653.356 5.946 4.164 7.028 3.202 1.082-.961-1.062-4.941-7.244-6.495-6.182-1.553-9.742 2.153-22.18-4.217-12.438-6.37-18.046-1.309-29.151-7.703" fill="#000"/>
    <path d="M334.329 310.222c11.619 5.318 21.113.752 31.256 6.064 10.143 5.313 18.498 1.991 23.152 2.347 4.653.356 5.946 4.164 7.028 3.202 1.082-.961-1.062-4.941-7.244-6.495-6.182-1.553-9.742 2.153-22.18-4.217-12.438-6.37-18.046-1.309-29.151-7.703" stroke="url(#b)" stroke-width="1.838"/>
    <path d="m301.226 298.224-62.829 67.743s-1.228 1.228-.409 2.046c.819.819 2.047-.409 2.047-.409l67.742-62.83" fill="#000"/>
    <path d="m301.226 298.224-62.829 67.743s-1.228 1.228-.409 2.046c.819.819 2.047-.409 2.047-.409l67.742-62.83" stroke="url(#b)" stroke-width="1.838"/>
    <path d="M277.237 316.42c-11.975 4.455-15.46 14.398-26.389 17.813-10.929 3.416-14.488 11.673-18.03 14.711-3.542 3.038-7.148 1.261-7.234 2.705-.085 1.445 4.246 2.744 9.716-.529 5.469-3.274 5.366-8.411 18.665-12.702 13.3-4.291 13.686-11.835 26.059-15.166" fill="#000"/>
    <path d="M277.237 316.42c-11.975 4.455-15.46 14.398-26.389 17.813-10.929 3.416-14.488 11.673-18.03 14.711-3.542 3.038-7.148 1.261-7.234 2.705-.085 1.445 4.246 2.744 9.716-.529 5.469-3.274 5.366-8.411 18.665-12.702 13.3-4.291 13.686-11.835 26.059-15.166" stroke="url(#b)" stroke-width="1.838"/>
    <path d="m307.774 304.771 62.829-67.742s1.228-1.228.409-2.047c-.819-.819-2.047.409-2.047.409l-67.742 62.83" fill="#000"/>
    <path d="m307.774 304.771 62.829-67.742s1.228-1.228.409-2.047c-.819-.819-2.047.409-2.047.409l-67.742 62.83" stroke="url(#b)" stroke-width="1.838"/>
    <path d="M331.763 286.575c11.976-4.455 15.461-14.398 26.389-17.813 10.929-3.415 14.489-11.672 18.031-14.711 3.541-3.038 7.148-1.26 7.233-2.705.085-1.445-4.245-2.743-9.715.53-5.47 3.273-5.366 8.411-18.666 12.701-13.3 4.291-13.686 11.836-26.059 15.166" fill="#000"/>
    <path d="M331.763 286.575c11.976-4.455 15.461-14.398 26.389-17.813 10.929-3.415 14.489-11.672 18.031-14.711 3.541-3.038 7.148-1.26 7.233-2.705.085-1.445-4.245-2.743-9.715.53-5.47 3.273-5.366 8.411-18.666 12.701-13.3 4.291-13.686 11.836-26.059 15.166" stroke="url(#b)" stroke-width="1.838"/>
    <path d="m307.774 298.224-67.742-62.83s-1.228-1.228-2.047-.409c-.818.818.41 2.046.41 2.046l62.828 67.743" fill="#000"/>
    <path d="m307.774 298.224-67.742-62.83s-1.228-1.228-2.047-.409c-.818.818.41 2.046.41 2.046l62.828 67.743" stroke="url(#b)" stroke-width="1.838"/>
    <path d="M289.579 274.237c-4.456-11.975-14.398-15.461-17.814-26.389-3.415-10.929-11.672-14.488-14.711-18.031-3.038-3.542-1.26-7.148-2.705-7.234-1.445-.085-2.743 4.246.53 9.716 3.273 5.469 8.411 5.366 12.701 18.665 4.291 13.3 11.836 13.686 15.166 26.06" fill="#000"/>
    <path d="M289.579 274.237c-4.456-11.975-14.398-15.461-17.814-26.389-3.415-10.929-11.672-14.488-14.711-18.031-3.038-3.542-1.26-7.148-2.705-7.234-1.445-.085-2.743 4.246.53 9.716 3.273 5.469 8.411 5.366 12.701 18.665 4.291 13.3 11.836 13.686 15.166 26.06" stroke="url(#b)" stroke-width="1.838"/>
    <path d="m301.226 304.771 67.742 62.83s1.228 1.228 2.047.409c.818-.818-.41-2.046-.41-2.046l-62.828-67.743" fill="#000"/>
    <path d="m301.226 304.771 67.742 62.83s1.228 1.228 2.047.409c.818-.818-.41-2.046-.41-2.046l-62.828-67.743" stroke="url(#b)" stroke-width="1.838"/>
    <path d="M319.422 328.758c4.455 11.976 14.398 15.461 17.813 26.39 3.416 10.928 11.672 14.488 14.711 18.03 3.039 3.542 1.261 7.149 2.705 7.234 1.445.085 2.744-4.246-.529-9.715-3.273-5.47-8.411-5.367-12.702-18.666-4.291-13.3-11.835-13.686-15.166-26.059" fill="#000"/>
    <path d="M319.422 328.758c4.455 11.976 14.398 15.461 17.813 26.39 3.416 10.928 11.672 14.488 14.711 18.03 3.039 3.542 1.261 7.149 2.705 7.234 1.445.085 2.744-4.246-.529-9.715-3.273-5.47-8.411-5.367-12.702-18.666-4.291-13.3-11.835-13.686-15.166-26.059" stroke="url(#b)" stroke-width="1.838"/>
    <path d="M300.224 299.726 268.1 386.354s-.665 1.605.405 2.048c1.07.443 1.734-1.162 1.734-1.162l38.542-83.973" fill="#000"/>
    <path d="M300.224 299.726 268.1 386.354s-.665 1.605.405 2.048c1.07.443 1.734-1.162 1.734-1.162l38.542-83.973" stroke="url(#b)" stroke-width="1.838"/>
    <path d="M285.023 325.716c-9.359 8.7-8.774 19.219-17.564 26.557-8.79 7.337-8.918 16.328-11.028 20.491-2.11 4.163-6.122 3.9-5.648 5.268.475 1.367 4.972.909 8.773-4.208 3.801-5.117 1.739-9.824 12.385-18.878 10.645-9.054 8.115-16.172 18.272-23.984" fill="#000"/>
    <path d="M285.023 325.716c-9.359 8.7-8.774 19.219-17.564 26.557-8.79 7.337-8.918 16.328-11.028 20.491-2.11 4.163-6.122 3.9-5.648 5.268.475 1.367 4.972.909 8.773-4.208 3.801-5.117 1.739-9.824 12.385-18.878 10.645-9.054 8.115-16.172 18.272-23.984" stroke="url(#b)" stroke-width="1.838"/>
    <path d="m308.776 303.269 32.124-86.628s.665-1.604-.405-2.047c-1.07-.443-1.734 1.161-1.734 1.161l-38.542 83.973" fill="#000"/>
    <path d="m308.776 303.269 32.124-86.628s.665-1.604-.405-2.047c-1.07-.443-1.734 1.161-1.734 1.161l-38.542 83.973" stroke="url(#b)" stroke-width="1.838"/>
    <path d="M323.976 277.279c9.359-8.699 8.774-19.219 17.564-26.556 8.79-7.338 8.918-16.328 11.028-20.491 2.11-4.163 6.122-3.901 5.648-5.268-.475-1.368-4.972-.91-8.773 4.207-3.801 5.117-1.739 9.824-12.384 18.878-10.646 9.054-8.116 16.172-18.273 23.984" fill="#000"/>
    <path d="M323.976 277.279c9.359-8.699 8.774-19.219 17.564-26.556 8.79-7.338 8.918-16.328 11.028-20.491 2.11-4.163 6.122-3.901 5.648-5.268-.475-1.368-4.972-.91-8.773 4.207-3.801 5.117-1.739 9.824-12.384 18.878-10.646 9.054-8.116 16.172-18.273 23.984" stroke="url(#b)" stroke-width="1.838"/>
    <path d="m306.272 297.218-86.628-32.124s-1.605-.665-2.048.405c-.443 1.07 1.162 1.734 1.162 1.734l83.972 38.542" fill="#000"/>
    <path d="m306.272 297.218-86.628-32.124s-1.605-.665-2.048.405c-.443 1.07 1.162 1.734 1.162 1.734l83.972 38.542" stroke="url(#b)" stroke-width="1.838"/>
    <path d="M280.282 282.022c-8.699-9.359-19.218-8.774-26.556-17.564-7.338-8.79-16.329-8.919-20.491-11.028-4.163-2.11-3.901-6.122-5.268-5.648-1.367.474-.91 4.972 4.207 8.773 5.118 3.801 9.825 1.739 18.878 12.384 9.054 10.645 16.172 8.115 23.984 18.272" fill="#000"/>
    <path d="M280.282 282.022c-8.699-9.359-19.218-8.774-26.556-17.564-7.338-8.79-16.329-8.919-20.491-11.028-4.163-2.11-3.901-6.122-5.268-5.648-1.367.474-.91 4.972 4.207 8.773 5.118 3.801 9.825 1.739 18.878 12.384 9.054 10.645 16.172 8.115 23.984 18.272" stroke="url(#b)" stroke-width="1.838"/>
    <path d="m302.728 305.777 86.628 32.124s1.605.665 2.048-.405c.443-1.069-1.162-1.734-1.162-1.734L306.27 297.22" fill="#000"/>
    <path d="m302.728 305.777 86.628 32.124s1.605.665 2.048-.405c.443-1.069-1.162-1.734-1.162-1.734L306.27 297.22" stroke="url(#b)" stroke-width="1.838"/>
    <path d="M328.72 320.973c8.7 9.36 19.219 8.774 26.557 17.564 7.338 8.79 16.328 8.919 20.491 11.029 4.163 2.109 3.9 6.121 5.267 5.647 1.367-.474.91-4.972-4.207-8.773-5.117-3.8-9.824-1.739-18.878-12.384-9.053-10.645-16.172-8.115-23.983-18.272" fill="#000"/>
    <path d="M328.72 320.973c8.7 9.36 19.219 8.774 26.557 17.564 7.338 8.79 16.328 8.919 20.491 11.029 4.163 2.109 3.9 6.121 5.267 5.647 1.367-.474.91-4.972-4.207-8.773-5.117-3.8-9.824-1.739-18.878-12.384-9.053-10.645-16.172-8.115-23.983-18.272" stroke="url(#b)" stroke-width="1.838"/>
    <path d="m302.728 297.218-83.973 38.542s-1.604.664-1.161 1.734c.443 1.069 2.047.405 2.047.405l86.629-32.124" fill="#000"/>
    <path d="m302.728 297.218-83.973 38.542s-1.604.664-1.161 1.734c.443 1.069 2.047.405 2.047.405l86.629-32.124" stroke="url(#b)" stroke-width="1.838"/>
    <path d="M273.603 304.851c-12.77-.466-19.794 7.386-31.198 6.36-11.403-1.027-17.852 5.239-22.287 6.691-4.435 1.452-7.087-1.571-7.718-.269-.632 1.302 2.872 4.159 9.178 3.228 6.306-.931 8.177-5.717 22.106-4.592 13.929 1.126 17.174-5.696 29.88-4.038" fill="#000"/>
    <path d="M273.603 304.851c-12.77-.466-19.794 7.386-31.198 6.36-11.403-1.027-17.852 5.239-22.287 6.691-4.435 1.452-7.087-1.571-7.718-.269-.632 1.302 2.872 4.159 9.178 3.228 6.306-.931 8.177-5.717 22.106-4.592 13.929 1.126 17.174-5.696 29.88-4.038" stroke="url(#b)" stroke-width="1.838"/>
    <path d="m306.272 305.777 83.973-38.541s1.604-.665 1.161-1.734c-.443-1.07-2.048-.406-2.048-.406L302.73 297.22" fill="#000"/>
    <path d="m306.272 305.777 83.973-38.541s1.604-.665 1.161-1.734c-.443-1.07-2.048-.406-2.048-.406L302.73 297.22" stroke="url(#b)" stroke-width="1.838"/>
    <path d="M335.397 298.144c12.769.466 19.793-7.386 31.197-6.359 11.404 1.026 17.852-5.239 22.287-6.691 4.436-1.452 7.087 1.571 7.719.268.631-1.302-2.873-4.159-9.179-3.228-6.306.931-8.176 5.717-22.106 4.592-13.929-1.126-17.173 5.697-29.879 4.039" fill="#000"/>
    <path d="M335.397 298.144c12.769.466 19.793-7.386 31.197-6.359 11.404 1.026 17.852-5.239 22.287-6.691 4.436-1.452 7.087 1.571 7.719.268.631-1.302-2.873-4.159-9.179-3.228-6.306.931-8.176 5.717-22.106 4.592-13.929-1.126-17.173 5.697-29.879 4.039" stroke="url(#b)" stroke-width="1.838"/>
    <path d="m308.776 299.726-38.542-83.973s-.664-1.604-1.734-1.161c-1.069.443-.405 2.047-.405 2.047l32.124 86.628" fill="#000"/>
    <path d="m308.776 299.726-38.542-83.973s-.664-1.604-1.734-1.161c-1.069.443-.405 2.047-.405 2.047l32.124 86.628" stroke="url(#b)" stroke-width="1.838"/>
    <path d="M301.15 270.6c.466-12.769-7.386-19.794-6.359-31.198 1.027-11.404-5.239-17.852-6.691-22.287-1.452-4.436 1.571-7.087.269-7.719-1.302-.631-4.159 2.873-3.229 9.178.931 6.306 5.718 8.177 4.592 22.106-1.125 13.93 5.697 17.174 4.039 29.88" fill="#000"/>
    <path d="M301.15 270.6c.466-12.769-7.386-19.794-6.359-31.198 1.027-11.404-5.239-17.852-6.691-22.287-1.452-4.436 1.571-7.087.269-7.719-1.302-.631-4.159 2.873-3.229 9.178.931 6.306 5.718 8.177 4.592 22.106-1.125 13.93 5.697 17.174 4.039 29.88" stroke="url(#b)" stroke-width="1.838"/>
    <path d="m300.224 303.269 38.542 83.973s.664 1.605 1.734 1.162c1.069-.443.405-2.048.405-2.048l-32.124-86.628" fill="#000"/>
    <path d="m300.224 303.269 38.542 83.973s.664 1.605 1.734 1.162c1.069-.443.405-2.048.405-2.048l-32.124-86.628" stroke="url(#b)" stroke-width="1.838"/>
    <path d="M307.85 332.395c-.466 12.769 7.386 19.794 6.359 31.198-1.027 11.404 5.239 17.852 6.691 22.287 1.452 4.436-1.571 7.087-.269 7.719 1.302.631 4.159-2.873 3.229-9.178-.931-6.306-5.718-8.176-4.592-22.106 1.125-13.929-5.697-17.174-4.039-29.88" fill="#000"/>
    <path d="M307.85 332.395c-.466 12.769 7.386 19.794 6.359 31.198-1.027 11.404 5.239 17.852 6.691 22.287 1.452 4.436-1.571 7.087-.269 7.719 1.302.631 4.159-2.873 3.229-9.178-.931-6.306-5.718-8.176-4.592-22.106 1.125-13.929-5.697-17.174-4.039-29.88" stroke="url(#b)" stroke-width="1.838"/>
    <path d="m302.185 301.498 2.315 63.387 2.316-63.387m-9.578 32.782c-4.126 11.566.22 19.244-5.319 29.045 6.154-7.018 2.097-16.113 7.472-28.016" fill="#fff"/>
    <path d="m302.86 299.859-43.183 46.458 46.458-43.184" fill="#fff"/>
    <path d="m302.36 300.61-22.118 59.447 26.396-57.676m-21.392 26.627c-8.238 9.107-7.161 17.863-16.029 24.799 8.371-4.129 8.104-14.084 17.625-23.024" fill="#fff"/>
    <path d="M306.815 301.498 304.5 238.11l-2.316 63.388m9.578-32.788c4.126-11.566-.22-19.243 5.319-29.045-6.154 7.018-2.097 16.114-7.472 28.017" fill="#fff"/>
    <path d="m304.5 299.183-63.386 2.315 63.386 2.316m-32.785-9.577c-11.566-4.125-19.243.22-29.045-5.318 7.018 6.153 16.114 2.097 28.016 7.472m5.498 23.156c-11.096 5.261-13.452 13.762-24.299 16.777 9.314-.611 12.877-9.911 25.094-14.527" fill="#fff"/>
    <path d="m306.14 299.859-46.458-43.184 43.183 46.458m-16.413-29.954c-5.261-11.095-13.763-13.452-16.777-24.299.611 9.314 9.911 12.877 14.526 25.095" fill="#fff"/>
    <path d="m306.64 302.386 22.118-59.448-26.396 57.676" fill="#fff"/>
    <path d="m305.388 299.358-59.445-22.118 57.673 26.397m-26.627-21.393c-9.107-8.237-17.863-7.161-24.799-16.029 4.13 8.371 14.085 8.104 23.024 17.625" fill="#fff"/>
    <path d="m303.612 299.358-57.674 26.396 59.446-22.117m-33.952 3.699c-12.264.615-17.694 7.567-28.869 6.201 8.839 3 15.689-4.229 28.743-3.818" fill="#fff"/>
    <path d="m306.64 300.61-26.395-57.677 22.117 59.448m-3.702-33.949c-.615-12.264-7.568-17.695-6.202-28.87-2.999 8.839 4.229 15.69 3.818 28.743" fill="#fff"/>
    <path d="m304.5 303.812 63.386-2.315-63.386-2.316m32.787 9.577c11.566 4.125 19.243-.22 29.045 5.318-7.018-6.153-16.114-2.097-28.016-7.472" fill="#fff"/>
    <path d="m306.14 303.137 43.183-46.458-46.458 43.183m29.952-16.414c11.095-5.261 13.452-13.762 24.299-16.777-9.314.611-12.877 9.911-25.094 14.527" fill="#fff"/>
    <path d="m302.86 303.137 46.458 43.183-43.183-46.458m16.414 29.954c5.262 11.096 13.763 13.452 16.778 24.299-.612-9.314-9.912-12.877-14.527-25.094m-1.046-55.034c8.238-9.107 7.161-17.863 16.029-24.799-8.371 4.129-8.104 14.084-17.625 23.024" fill="#fff"/>
    <path d="m303.612 303.637 59.445 22.118-57.673-26.396m26.625 21.392c9.107 8.238 17.863 7.161 24.799 16.029-4.129-8.37-14.085-8.104-23.024-17.624" fill="#fff"/>
    <path d="m305.388 303.637 57.674-26.396-59.446 22.118m33.95-3.7c12.264-.615 17.694-7.567 28.869-6.201-8.839-3-15.69 4.229-28.743 3.818" fill="#fff"/>
    <path d="m302.36 302.386 26.395 57.676-22.117-59.448m3.702 33.95c.615 12.264 7.568 17.694 6.201 28.869 3-8.839-4.229-15.69-3.818-28.743" fill="#fff"/>
    <path d="M304.5 339.127c20.78 0 37.626-16.846 37.626-37.627 0-20.782-16.846-37.628-37.626-37.628-20.78 0-37.626 16.846-37.626 37.628 0 20.781 16.846 37.627 37.626 37.627Z" fill="#000" stroke="url(#b)" stroke-width="1.225"/>
  </g>

<defs>
    <linearGradient id="b" x1="304" y1="20" x2="304" y2="580" gradientUnits="userSpaceOnUse">
      <stop stop-color="#AE8625"/>
      <stop offset=".38" stop-color="#F7EF8A"/>
      <stop offset=".776" stop-color="#D2AC47"/>
      <stop offset="1" stop-color="#EDC967"/>
    </linearGradient>
</defs>
</svg>
